<?xml version="1.0" encoding="utf-8"?>
<svg version="1.1" xmlns:xlink="http://www.w3.org/1999/xlink" width="25px" height="17px" xmlns="http://www.w3.org/2000/svg">
  <g transform="matrix(1 0 0 1 -36 -11 )">
    <path d="M 12.486469177868278 0  C 12.261234537558389 0.0026010459338086365  11.55029273022761 0.28273531402782226  6.283175920860487 2.444690058037879  C 3.0112445202696727 3.7876321407614806  0.2908099678305252 4.9235899847483635  0.2377658059841603 4.9690283173851855  C -0.09024580438215976 5.249753306727689  -0.07631310274745572 5.868695624292771  0.26369435531624313 6.120999500829265  C 0.32661010419791253 6.167678673842851  1.335823574705735 6.5980727001710715  2.506356473832479 7.077391007671488  C 2.506356473832479 7.077391007671488  4.634683151294059 7.948932956257538  4.634683151294059 7.948932956257538  C 4.634683151294059 7.948932956257538  4.653926891880256 10.470317108127636  4.653926891880256 10.470317108127636  C 4.675419462889401 13.289148281711343  4.668671679391531 13.22775605212696  5.033358105043492 13.914944372056791  C 6.341280972931797 16.37972285682222  11.253958382764258 17.657786148616683  15.58002524609451 16.65873364224075  C 17.658681708387704 16.17864722397004  19.316607943489693 15.141897502194611  19.967695340912652 13.914944372056791  C 20.33125714746398 13.229824107681925  20.324760750923637 13.288734670600348  20.347065540011457 10.46919461039862  C 20.347065540011457 10.46919461039862  20.366996165494854 7.946687059194902  20.366996165494854 7.946687059194902  C 20.366996165494854 7.946687059194902  20.71693661195459 7.807654219997463  20.71693661195459 7.807654219997463  C 20.71693661195459 7.807654219997463  21.066878965103843 7.668561874896316  21.066878965103843 7.668561874896316  C 21.066878965103843 7.668561874896316  21.09130747114931 11.740109079306837  21.09130747114931 11.740109079306837  C 21.114237045523037 15.564374091235598  21.121046427753797 15.819395432216517  21.20376783202767 15.938811383893055  C 21.51366070820474 16.38598602223824  22.282646315206208 16.351242407163365  22.57741941167036 15.876651156238955  C 22.676385199861766 15.717351090851405  22.677822219053365 15.658795985547172  22.69106764011556 11.352199109087369  C 22.69106764011556 11.352199109087369  22.7044373469834 6.989113999522256  22.7044373469834 6.989113999522256  C 22.7044373469834 6.989113999522256  23.66004534412733 6.600435862182206  23.66004534412733 6.600435862182206  C 24.18561364294691 6.386657071295497  24.66875854697408 6.172228593289783  24.73367360877065 6.123954059108773  C 25.106294812208624 5.84677431993556  25.083364457656277 5.159053799714478  24.693436739969727 4.918331090636083  C 24.240218400367965 4.638492406792116  12.72101309566315 -0.002716834382846799  12.486469177868278 0  Z M 12.5435745287941 1.5938882836057733  C 12.580686698434878 1.6052330950653682  14.749750385742356 2.4913098906767304  17.363721845727312 3.5629218448824287  C 19.977630861630704 4.6345337990881275  22.11632850002795 5.522737935159377  22.11632850002795 5.53674168688736  C 22.11632850002795 5.5506863509364255  21.97062800158213 5.622182084952819  21.792502073143506 5.695509749209664  C 21.792502073143506 5.695509749209664  21.468738567013006 5.828930099762019  21.468738567013006 5.828930099762019  C 21.468738567013006 5.828930099762019  17.094440085752215 5.312740728428633  17.094440085752215 5.312740728428633  C 12.381694205745983 4.756549527633439  12.314278937740944 4.75087719498292  12.07298735003029 4.889969314682917  C 11.584906086437023 5.171403359694306  11.593278806970645 5.917265430458919  12.087482957055784 6.190249947070506  C 12.199631685918796 6.252173707786474  12.989858328011763 6.361308796022672  15.351666763145156 6.640970201861845  C 17.065574236536733 6.843935964235891  18.475649844072002 7.017357723383843  18.485084082338172 7.026279944410242  C 18.494580799132937 7.035261253115558  17.152481263724827 7.595648378209554  15.502676572605095 8.271610030340586  C 15.502676572605095 8.271610030340586  12.503088837011681 9.500690045733627  12.503088837011681 9.500690045733627  C 12.503088837011681 9.500690045733627  7.693875907765345 7.530946808934924  7.693875907765345 7.530946808934924  C 5.048852817373999 6.447576465616619  2.884725899272949 5.55003658281388  2.884725899272949 5.536387356278923  C 2.884725899272949 5.488644606805791  12.476722635404224 1.5735030757619475  12.5435745287941 1.5938882836057733  Z M 6.273741621148268 8.629384768355504  C 6.285362604191108 8.629384768355504  7.637708409743915 9.17984463774906  9.27901605821535 9.85267467899694  C 11.838568692798837 10.901892465407023  12.297160128137353 11.07596458963838  12.502026810952726 11.07596458963838  C 12.706955967641687 11.07596458963838  13.165859831932183 10.901833410305617  15.72572492525968 9.85267467899694  C 17.367344913307022 9.17984463774906  18.720440130697654 8.629384768355504  18.73256094103822 8.629384768355504  C 18.80647288860782 8.629384768355504  18.715878733541167 12.817866469090182  18.637968167589772 13.005823994477513  C 17.22470666249178 16.414289926446035  6.898775834308224 16.165470948920813  6.300107800411708 12.708435126260708  C 6.25512334920252 12.448686221551194  6.230444087418025 8.629384768355504  6.273741621148268 8.629384768355504  Z " fill-rule="nonzero" fill="#ffffff" stroke="none" transform="matrix(1 0 0 1 36 11 )" />
  </g>
</svg>