<?xml version="1.0" encoding="utf-8"?>
<svg version="1.1" xmlns:xlink="http://www.w3.org/1999/xlink" width="21px" height="19px" xmlns="http://www.w3.org/2000/svg">
  <g transform="matrix(1 0 0 1 -36 -10 )">
    <path d="M 8.284114235074286 2.422236309401792  C 6.586548193709125 -0.1568527025565577  6.584657168545167 -0.15869738767862734  5.984870481982889 0.12130912879255416  C 5.641354848395681 0.28170120272774546  5.49643724374336 0.6390881293139538  5.64823544296261 0.9514254892185221  C 5.692514292962812 1.0423984759262444  6.230216457787569 1.8763499751697787  6.843187022551157 2.8045754546729746  C 6.843187022551157 2.8045754546729746  7.957721618700424 4.492236023633974  7.957721618700424 4.492236023633974  C 7.957721618700424 4.492236023633974  4.5610663367651645 4.511508100094682  4.5610663367651645 4.511508100094682  C 1.7606786242603552 4.527382255206457  1.139251568883159 4.540198351850185  1.0208069515177607 4.584519770103883  C 0.5698770211428545 4.753310102279344  0.23513313251667065 5.058511092547682  0.0796056424263103 5.442646242753564  C -0.005800540987036755 5.653622031328496  -0.005800539030315855 5.654301678965859  0.0048095773007889074 11.804735901802538  C 0.0048095773007889074 11.804735901802538  0.015472219456226413 17.95585086023131  0.015472219456226413 17.95585086023131  C 0.015472219456226413 17.95585086023131  0.1257754017525922 18.173379585355185  0.1257754017525922 18.173379585355185  C 0.3291009435053218 18.574359793341138  0.7532953917026947 18.878056564662337  1.2257082014719622 18.960825481475894  C 1.5236318500169455 19.01305970446559  19.476367849430726 19.01305970446559  19.77429149797571 18.960825481475894  C 20.246704307744974 18.878056564662337  20.670899319477968 18.574359793341138  20.874224861230697 18.173379585355185  C 20.874224861230697 18.173379585355185  20.984528367560042 17.95585086023131  20.984528367560042 17.95585086023131  C 20.984528367560042 17.95585086023131  20.995191162731054 11.804735901802538  20.995191162731054 11.804735901802538  C 21.005801279062158 5.654301678965859  21.005800691263204 5.653622031328496  20.920394507849856 5.442646242753564  C 20.764867017759492 5.058511092547682  20.430122778488926 4.753310102279344  19.97919284811402 4.584519770103883  C 19.860748230748623 4.540198351850185  19.239320975003206 4.527382255206457  16.4389332624984 4.511508100094682  C 16.4389332624984 4.511508100094682  13.042278381299578 4.492236023633974  13.042278381299578 4.492236023633974  C 13.042278381299578 4.492236023633974  14.156812977448842 2.8045754546729746  14.156812977448842 2.8045754546729746  C 14.769783542212432 1.8763499751697787  15.307485306300752 1.0423984759262444  15.351764156300952 0.9514254892185221  C 15.664920147539707 0.3072357318233149  14.728183142563706 -0.2708359376833563  14.193212669683259 0.23640888325250095  C 14.136747941144984 0.2899052726219147  13.47198821520005 1.2735202753242334  12.715938662135674 2.422236309401792  C 12.715938662135674 2.422236309401792  11.341245969736384 4.510828475605292  11.341245969736384 4.510828475605292  C 11.341245969736384 4.510828475605292  10.5 4.510828475605292  10.5 4.510828475605292  C 10.5 4.510828475605292  9.658754030263616 4.510828475605292  9.658754030263616 4.510828475605292  C 9.658754030263616 4.510828475605292  8.284114235074286 2.422236309401792  8.284114235074286 2.422236309401792  Z M 14.098194854086138 6.900544105046535  C 14.098194854086138 6.900544105046535  14.279039194313663 6.988798993099234  14.279039194313663 6.988798993099234  C 14.397851487361917 7.0468100531837115  14.502167715785124 7.140161586716459  14.583004195138036 7.2607954544125475  C 14.583004195138036 7.2607954544125475  14.706123252789128 7.444488879889174  14.706123252789128 7.444488879889174  C 14.706123252789128 7.444488879889174  14.706123252789128 11.755025907406393  14.706123252789128 11.755025907406393  C 14.706123252789128 11.755025907406393  14.706123252789128 16.06551552787476  14.706123252789128 16.06551552787476  C 14.706123252789128 16.06551552787476  14.583004195138036 16.24920895335139  14.583004195138036 16.24920895335139  C 14.501957617183924 16.37018264486616  14.397852313880824 16.46324303476759  14.278252147947313 16.521642448396296  C 14.278252147947313 16.521642448396296  14.09656626119772 16.610284740926325  14.09656626119772 16.610284740926325  C 14.09656626119772 16.610284740926325  8.547370825471267 16.600431482116665  8.547370825471267 16.600431482116665  C 8.547370825471267 16.600431482116665  2.998122893271292 16.5905278533176  2.998122893271292 16.5905278533176  C 2.998122893271292 16.5905278533176  2.8404419206954037 16.474553915654596  2.8404419206954037 16.474553915654596  C 2.7537226053707844 16.410766024262333  2.6412134456807483 16.28343361926668  2.5904214545129793 16.191538278423938  C 2.5904214545129793 16.191538278423938  2.498081760538223 16.024543985905137  2.498081760538223 16.024543985905137  C 2.498081760538223 16.024543985905137  2.498974801692711 11.756482192688289  2.498974801692711 11.756482192688289  C 2.499972782864936 7.044964864593226  2.484898032613077 7.326087969841475  2.749152957663913 7.102150728372659  C 3.0023250406175013 6.887679711603742  2.614582856266143 6.90102979025659  8.595641933976953 6.9007870661718975  C 8.595641933976953 6.9007870661718975  14.098194854086138 6.900544105046535  14.098194854086138 6.900544105046535  Z M 17.531618105043325 7.926005238011065  C 17.771081069554103 7.882217811667672  17.76341152512274 7.882169284835624  18.0313957535677 7.927995593327677  C 19.64045664775954 8.202904902980462  19.523904057399196 10.397567597953644  17.89504117280671 10.496793201642063  C 16.16811357328668 10.601941272110846  15.833736884468829 8.236594972244655  17.531618105043325 7.926005238011065  Z M 16.466614532764215 13.887552741316497  C 16.72593205928724 13.175109009409443  17.64538783129454 12.808400370919221  18.37879898144247 13.124912583507166  C 19.623859346662208 13.66225518606214  19.380300054271164 15.355790965216483  18.025251662483743 15.582883622634592  C 17.001217880974412 15.754489558514646  16.1314504218896 14.808399387739524  16.466614532764215 13.887552741316497  Z " fill-rule="nonzero" fill="#ffffff" stroke="none" transform="matrix(1 0 0 1 36 10 )" />
  </g>
</svg>