<?xml version="1.0" encoding="utf-8"?>
<svg version="1.1" xmlns:xlink="http://www.w3.org/1999/xlink" width="27px" height="18px" xmlns="http://www.w3.org/2000/svg">
  <g transform="matrix(1 0 0 1 -33 -8 )">
    <path d="M 26.840458779616085 4.176721188500864  C 25.79159920620737 1.4665397237542086  18.54675336192742 -0.4200473556149535  11.110548187265001 0.0806691171315927  C 6.255279016780806 0.40758521018111543  2.4594387946928653 1.5904826802004755  0.8163818536655345 3.2886828393250487  C 0.34842259522269636 3.7722582465097974  0.3188445666278274 3.827060120243911  0.2266165253204454 4.379529362074491  C 0.17325723534350568 4.69944069577775  0.09705412757843872 5.082559718564042  0.05716251744598531 5.230978141084353  C 0.017356144700264566 5.379396563604665  -0.0074482010946359985 7.292437108314317  0.0020132707673194052 9.482288711271892  C 0.0020132707673194052 9.482288711271892  0.019231415474174087 13.463708133481612  0.019231415474174087 13.463708133481612  C 0.019231415474174087 13.463708133481612  0.2821920534003588 13.978269554847298  0.2821920534003588 13.978269554847298  C 2.981353923530019 19.260020785813282  23.716211004883935 19.372015200455532  26.72487385516329 14.121002578421665  C 26.72487385516329 14.121002578421665  26.966953439252638 13.698490999136473  26.966953439252638 13.698490999136473  C 26.966953439252638 13.698490999136473  26.99005273549292 9.160728533184823  26.99005273549292 9.160728533184823  C 27.012640932571827 4.716004587213964  27.009571929394586 4.613735564446884  26.840458779616085 4.176721188500864  Z M 1.8239858206103026 5.551795789059972  C 0.5556371667878826 3.1805621872985226  9.303322200209893 0.9781841610901229  16.943759100237322 1.74516377403137  C 21.664095734713406 2.218932525990475  25.364894985200205 3.6846572977981666  25.364894985200205 5.080334436847601  C 25.364894985200205 6.655580474608704  19.998706059817508 8.542332924699595  16.296543092432735 8.268900199663685  C 14.717244468611653 8.152209201510477  12.213874496521377 8.152043305209775  10.69611806865759 8.268569487691947  C 7.581248205001821 8.507637698328507  2.586955510395117 6.978293743486968  1.8239858206103026 5.551795789059972  Z M 2.0129594593188505 7.82990709257022  C 2.1807940330545335 7.940087788214191  2.581670518064775 8.151054764844158  2.903701521079409 8.298813914856408  C 8.682614780890516 10.95007300603001  20.90726309612847 10.657026675825632  25.138927680492877 7.7656282538959776  C 25.138927680492877 7.7656282538959776  25.364894985200205 7.611276300211861  25.364894985200205 7.611276300211861  C 25.364894985200205 7.611276300211861  25.364894985200205 10.400734957408083  25.364894985200205 10.400734957408083  C 25.364894985200205 13.534662827129084  25.385097480443974 13.418383656939492  24.746320283843108 13.961952754294908  C 20.83566373191791 17.289953537552748  5.6981601816632095 17.190732715636393  2.1826693774972816 13.814110670868166  C 1.6181348846533328 13.271942541100255  1.65691825379967 13.548012965250583  1.685132192071766 10.2669852278493  C 1.685132192071766 10.2669852278493  1.7078058551648305 7.629735812550723  1.7078058551648305 7.629735812550723  C 1.7078058551648305 7.629735812550723  2.0129594593188505 7.82990709257022  2.0129594593188505 7.82990709257022  Z " fill-rule="nonzero" fill="#ffffff" stroke="none" transform="matrix(1 0 0 1 33 8 )" />
  </g>
</svg>