<?xml version="1.0" encoding="utf-8"?>
<svg version="1.1" xmlns:xlink="http://www.w3.org/1999/xlink" width="30px" height="30px" xmlns="http://www.w3.org/2000/svg">
  <defs>
    <mask fill="white" id="clip4">
      <path d="M 10.909091707103528 15.000000975348776  C 10.909091707103528 17.25934813279881  12.740654305573116 19.090909268245234  15.000000975348769 19.090909268245234  C 17.259348132798777 19.090909268245234  19.09090926824524 17.25934813279881  19.09090926824524 15.000000975348776  C 19.09090926824524 12.74065430557313  17.259348132798777 10.909091707103542  15.000000975348769 10.909091707103542  C 12.740654305573116 10.909091707103542  10.909091707103528 12.74065430557313  10.909091707103528 15.000000975348776  Z M 25.9166379805755 18.101328203952452  C 25.550787764009044 18.3436131301192  25.263766134585182 18.687587614767665  25.090907707687165 19.090909268245234  C 24.909386994961153 19.502203879804128  24.85524122399056 19.958445610878492  24.935448817142515 20.400802673027847  C 25.015656410294525 20.843159735177203  25.226539860732544 21.251346519783258  25.540908273389505 21.57272714149853  C 25.540908273389505 21.57272714149853  25.622728331424014 21.65454329813798  25.622728331424014 21.65454329813798  C 25.87630046604926 21.90783349600796  26.077460405472664 22.20862177715504  26.21470846760093 22.539707423977738  C 26.351956529729193 22.870793070800442  26.422600157590352 23.225685518196947  26.422600157590352 23.584091385238445  C 26.422600157590352 23.942497252279942  26.351956529729193 24.297387748978903  26.21470846760093 24.628473395801603  C 26.077460405472664 24.959559042624303  25.87630046604926 25.26034537307383  25.622728331424014 25.513635570943812  C 25.36943813355407 25.767207705569056  25.068649852406963 25.96836959568997  24.73756420558425 26.105617657818257  C 24.40647855876159 26.242865719946543  24.051588062062592 26.31350934780768  23.69318219502111 26.31350934780768  C 23.334776327979625 26.31350934780768  22.97988388058309 26.242865719946543  22.64879823376043 26.105617657818257  C 22.317712586937716 25.96836959568997  22.01692430579061 25.767207705569056  21.763634107920666 25.513635570943812  C 21.763634107920666 25.513635570943812  21.681817951281175 25.43181746360681  21.681817951281175 25.43181746360681  C 21.36043732956591 25.117449050949876  20.952250544959895 24.90656560051184  20.509893482810526 24.82635800735985  C 20.067536420661156 24.746150414207865  19.611294689586828 24.800296185178482  19.200000078027927 24.981816897904523  C 18.79667842455035 25.15467532480252  18.45270393990188 25.44169695422636  18.210419013735134 25.807547170792805  C 17.968134087568387 26.173397387359245  17.838113089236685 26.602109015350294  17.836363005046962 27.04090885859874  C 17.836363005046962 27.04090885859874  17.836363005046962 27.272725854038143  17.836363005046962 27.272725854038143  C 17.836363005046962 27.99604359116526  17.54902495114476 28.68973626747939  17.03756211183554 29.201199106788593  C 16.52609927252638 29.712661946097803  15.832408546909791 30  15.109090809782685 30  C 14.385773072655525 30  13.692081371690222 29.712661946097803  13.180618532381004 29.201199106788593  C 12.669155693071787 28.68973626747939  12.381817639169583 27.99604359116526  12.381817639169583 27.272725854038143  C 12.381817639169583 27.272725854038143  12.381817639169583 27.14999966838141  12.381817639169583 27.14999966838141  C 12.371259977307432 26.698643611719113  12.225161355605394 26.26090177805432  11.96251422546186 25.893682171807818  C 11.699867095318382 25.526462565561317  11.332820582999773 25.2467498950606  10.909090731754759 25.09090770768719  C 10.535800665189186 24.9261599161231  10.125486142146826 24.866335154957568  9.722130916406627 24.916650624267284  C 9.681065446955586 24.92177322646999  9.64007211209963 24.92803745556111  9.59919732697216 24.93544881714252  C 9.15684026482279 25.015656410294508  8.748652504867948 25.226539860732547  8.427271883152684 25.54090827338948  C 8.427271883152684 25.54090827338948  8.345453775815713 25.622728331424035  8.345453775815713 25.622728331424035  C 8.092163577945712 25.87630046604928  7.791377247496199 26.077460405472642  7.460291600673486 26.21470846760093  C 7.1292059538507715 26.351956529729208  6.774314969477416 26.422600157590352  6.415909102435933 26.422600157590352  C 6.057503235394449 26.422600157590352  5.702611763346681 26.351956529729208  5.371526116524024 26.21470846760093  C 5.040440469701309 26.077460405472642  4.739653651577385 25.87630046604928  4.4863634537073835 25.622728331424035  C 4.232791319082139 25.369438133554052  4.031630404310022 25.06864985240697  3.8943823421817565 24.737564205584274  C 3.757134280053435 24.406478558761574  3.686490652192333 24.051588062062613  3.686490652192333 23.693182195021116  C 3.686490652192333 23.33477632797962  3.757134280053435 22.97988388058311  3.8943823421817565 22.64879823376041  C 4.031630404310022 22.317712586937713  4.232791319082139 22.01692430579063  4.4863634537073835 21.76363410792065  C 4.4863634537073835 21.76363410792065  4.568181561044412 21.681817951281197  4.568181561044412 21.681817951281197  C 4.882549973701373 21.36043732956593  5.093434887162573 20.952250544959874  5.173642480314527 20.50989348281052  C 5.253850073466538 20.067536420661163  5.199702351798351 19.6112946895868  5.018181639072338 19.2000000780279  C 4.845323212174321 18.796678424550336  4.5583025580992285 18.45270393990187  4.192452341532828 18.210419013735123  C 3.826602124966371 17.968134087568373  3.3978907408124996 17.838113089236657  2.9590908975640673 17.836363005046977  C 2.9590908975640673 17.836363005046977  2.7272726829386897 17.836363005046977  2.7272726829386897 17.836363005046977  C 2.0039549458115857 17.836363005046977  1.3102625742939153 17.54902495114478  0.7987997349847547 17.037562111835573  C 0.2873368956755371 16.526099272526366  0 15.832408546909791  0 15.109090809782671  C 0 14.385773072655553  0.2873368956755371 13.692081371690204  0.7987997349847547 13.180618532380993  C 1.3102625742939153 12.669155693071787  2.0039549458115857 12.381817639169586  2.7272726829386897 12.38181763916959  C 2.7272726829386897 12.38181763916959  2.849999843944204 12.38181763916959  2.849999843944204 12.38181763916959  C 3.301355900606495 12.371259977307432  3.7390972465968844 12.225161355605401  4.106316852843406 11.96251422546188  C 4.473536459089928 11.699867095318364  4.75324864191623 11.332820582999776  4.909090829289653 10.909090731754766  C 5.090611542015665 10.497796120195872  5.144759263683852 10.041554389121508  5.064551670531841 9.599197326972153  C 4.9843440773798875 9.1568402648228  4.773459163918687 8.748652504867966  4.459090751261726 8.427271883152697  C 4.459090751261726 8.427271883152697  4.377272643924755 8.345453775815695  4.377272643924755 8.345453775815695  C 4.1237005092995105 8.092163577945712  3.9225395945273362 7.791377247496182  3.785291532399072 7.460291600673486  C 3.6480434702708067 7.1292059538507875  3.5773998424096476 6.774314969477436  3.5773998424096476 6.41590910243594  C 3.5773998424096476 6.057503235394446  3.6480434702708067 5.702611763346706  3.785291532399072 5.371526116524008  C 3.9225395945273362 5.040440469701311  4.1237005092995105 4.739653651577392  4.377272643924755 4.486363453707412  C 4.630562841794699 4.232791319082164  4.931349659918624 4.031630404310027  5.262435306741338 3.894382342181741  C 5.593520953564052 3.757134280053453  5.948412425611764 3.686490652192317  6.306818292653247 3.686490652192317  C 6.665224159694787 3.686490652192317  7.020115144068143 3.757134280053453  7.3512007908908 3.894382342181741  C 7.682286437713515 4.031630404310027  7.983072768163027 4.232791319082164  8.236362966033028 4.486363453707412  C 8.236362966033028 4.486363453707412  8.318181073369999 4.568181561044414  8.318181073369999 4.568181561044414  C 8.63956169508532 4.882549973701346  9.047748479691336 5.09343488716255  9.490105541840705 5.173642480314536  C 9.932462603990075 5.25385007346652  10.38870531041323 5.199702351798354  10.799999921972073 5.018181639072317  C 10.799999921972073 5.018181639072317  10.909090731754759 5.018181639072317  10.909090731754759 5.018181639072317  C 11.312412385232335 4.845323212174318  11.656386869880805 4.55830255809925  11.898671796047552 4.1924523415328085  C 12.140956722214298 3.8266021249663678  12.270976745197231 3.3978907408125067  12.272726829386897 2.95909089756406  C 12.272726829386897 2.95909089756406  12.272726829386897 2.7272726829386915  12.272726829386897 2.7272726829386915  C 12.272726829386897 2.0039549458115733  12.560064883289101 1.310262574293942  13.071527722598319 0.7987997349847333  C 13.582990561907536 0.2873368956755247  14.276682262872896 0  15 0  C 15.723317737127102 0  16.417008462743695 0.2873368956755247  16.928471302052913 0.7987997349847333  C 17.43993414136213 1.310262574293942  17.727272195264277 2.0039549458115733  17.727272195264277 2.7272726829386915  C 17.727272195264277 2.7272726829386915  17.727272195264277 2.8499998439441967  17.727272195264277 2.8499998439441967  C 17.729022279454 3.2887996871926433  17.8590432777857 3.717511802858084  18.10132820395245 4.083362019424527  C 18.343613130119195 4.449212235990968  18.687587614767665 4.7362324023916464  19.09090926824524 4.909090829289646  C 19.502203879804142 5.090611542015685  19.95844561087847 5.14475926368385  20.40080267302784 5.064551670531866  C 20.84315973517721 4.98434407737988  21.251346519783283 4.773459163918677  21.572727141498547 4.459090751261744  C 21.572727141498547 4.459090751261744  21.65454329813798 4.377272643924741  21.65454329813798 4.377272643924741  C 21.90783349600798 4.123700509299496  22.20862177715503 3.9225395945273576  22.539707423977745 3.785291532399072  C 22.87079307080046 3.6480434702707853  23.22568551819694 3.5773998424096476  23.58409138523848 3.5773998424096476  C 23.942497252279964 3.5773998424096476  24.297387748978906 3.6480434702707853  24.62847339580162 3.785291532399072  C 24.959559042624278 3.9225395945273576  25.260345373073847 4.123700509299496  25.51363557094379 4.377272643924741  C 25.767207705569035 4.63056284179472  25.96836959568998 4.9313496599186415  26.105617657818243 5.262435306741338  C 26.242865719946565 5.593520953564035  26.313509347807667 5.9484124256117745  26.313509347807667 6.3068182926532685  C 26.313509347807667 6.665224159694764  26.242865719946565 7.020115144068118  26.105617657818243 7.351200790890815  C 25.96836959568998 7.682286437713511  25.767207705569035 7.9830727681630425  25.51363557094379 8.236362966033024  C 25.51363557094379 8.236362966033024  25.43181746360682 8.318181073370026  25.43181746360682 8.318181073370026  C 25.11744905094986 8.639561695085295  24.90656560051184 9.047748479691352  24.82635800735983 9.490105541840705  C 24.746150414207875 9.93246260399006  24.800296185178468 10.3887053104132  24.981816897904537 10.799999921972095  C 24.981816897904537 10.799999921972095  24.981816897904537 10.909090731754766  24.981816897904537 10.909090731754766  C 25.154675324802497 11.312412385232335  25.44169695422636 11.656386869880802  25.807547170792816 11.898671796047548  C 26.173397387359273 12.140956722214295  26.602109015350322 12.270976745197238  27.040908858598755 12.272726829386919  C 27.040908858598755 12.272726829386919  27.27272585403813 12.272726829386919  27.27272585403813 12.272726829386919  C 27.99604359116529 12.272726829386919  28.68973626747936 12.560064883289115  29.20119910678858 13.071527722598326  C 29.712661946097796 13.582990561907536  30 14.276682262872882  30 15  C 30 15.72331773712712  29.712661946097796 16.41700846274369  29.20119910678858 16.928471302052902  C 28.68973626747936 17.439934141362112  27.99604359116529 17.727272195264305  27.27272585403813 17.727272195264305  C 27.27272585403813 17.727272195264305  27.14999966838144 17.727272195264305  27.14999966838144 17.727272195264305  C 26.71119982513295 17.729022279453986  26.2824881971419 17.8590432777857  25.9166379805755 18.101328203952452  Z " fill-rule="evenodd" />
    </mask>
  </defs>
  <g transform="matrix(1 0 0 1 -310 -6 )">
    <path d="M 10.909091707103528 15.000000975348776  C 10.909091707103528 17.25934813279881  12.740654305573116 19.090909268245234  15.000000975348769 19.090909268245234  C 17.259348132798777 19.090909268245234  19.09090926824524 17.25934813279881  19.09090926824524 15.000000975348776  C 19.09090926824524 12.74065430557313  17.259348132798777 10.909091707103542  15.000000975348769 10.909091707103542  C 12.740654305573116 10.909091707103542  10.909091707103528 12.74065430557313  10.909091707103528 15.000000975348776  Z M 25.9166379805755 18.101328203952452  C 25.550787764009044 18.3436131301192  25.263766134585182 18.687587614767665  25.090907707687165 19.090909268245234  C 24.909386994961153 19.502203879804128  24.85524122399056 19.958445610878492  24.935448817142515 20.400802673027847  C 25.015656410294525 20.843159735177203  25.226539860732544 21.251346519783258  25.540908273389505 21.57272714149853  C 25.540908273389505 21.57272714149853  25.622728331424014 21.65454329813798  25.622728331424014 21.65454329813798  C 25.87630046604926 21.90783349600796  26.077460405472664 22.20862177715504  26.21470846760093 22.539707423977738  C 26.351956529729193 22.870793070800442  26.422600157590352 23.225685518196947  26.422600157590352 23.584091385238445  C 26.422600157590352 23.942497252279942  26.351956529729193 24.297387748978903  26.21470846760093 24.628473395801603  C 26.077460405472664 24.959559042624303  25.87630046604926 25.26034537307383  25.622728331424014 25.513635570943812  C 25.36943813355407 25.767207705569056  25.068649852406963 25.96836959568997  24.73756420558425 26.105617657818257  C 24.40647855876159 26.242865719946543  24.051588062062592 26.31350934780768  23.69318219502111 26.31350934780768  C 23.334776327979625 26.31350934780768  22.97988388058309 26.242865719946543  22.64879823376043 26.105617657818257  C 22.317712586937716 25.96836959568997  22.01692430579061 25.767207705569056  21.763634107920666 25.513635570943812  C 21.763634107920666 25.513635570943812  21.681817951281175 25.43181746360681  21.681817951281175 25.43181746360681  C 21.36043732956591 25.117449050949876  20.952250544959895 24.90656560051184  20.509893482810526 24.82635800735985  C 20.067536420661156 24.746150414207865  19.611294689586828 24.800296185178482  19.200000078027927 24.981816897904523  C 18.79667842455035 25.15467532480252  18.45270393990188 25.44169695422636  18.210419013735134 25.807547170792805  C 17.968134087568387 26.173397387359245  17.838113089236685 26.602109015350294  17.836363005046962 27.04090885859874  C 17.836363005046962 27.04090885859874  17.836363005046962 27.272725854038143  17.836363005046962 27.272725854038143  C 17.836363005046962 27.99604359116526  17.54902495114476 28.68973626747939  17.03756211183554 29.201199106788593  C 16.52609927252638 29.712661946097803  15.832408546909791 30  15.109090809782685 30  C 14.385773072655525 30  13.692081371690222 29.712661946097803  13.180618532381004 29.201199106788593  C 12.669155693071787 28.68973626747939  12.381817639169583 27.99604359116526  12.381817639169583 27.272725854038143  C 12.381817639169583 27.272725854038143  12.381817639169583 27.14999966838141  12.381817639169583 27.14999966838141  C 12.371259977307432 26.698643611719113  12.225161355605394 26.26090177805432  11.96251422546186 25.893682171807818  C 11.699867095318382 25.526462565561317  11.332820582999773 25.2467498950606  10.909090731754759 25.09090770768719  C 10.535800665189186 24.9261599161231  10.125486142146826 24.866335154957568  9.722130916406627 24.916650624267284  C 9.681065446955586 24.92177322646999  9.64007211209963 24.92803745556111  9.59919732697216 24.93544881714252  C 9.15684026482279 25.015656410294508  8.748652504867948 25.226539860732547  8.427271883152684 25.54090827338948  C 8.427271883152684 25.54090827338948  8.345453775815713 25.622728331424035  8.345453775815713 25.622728331424035  C 8.092163577945712 25.87630046604928  7.791377247496199 26.077460405472642  7.460291600673486 26.21470846760093  C 7.1292059538507715 26.351956529729208  6.774314969477416 26.422600157590352  6.415909102435933 26.422600157590352  C 6.057503235394449 26.422600157590352  5.702611763346681 26.351956529729208  5.371526116524024 26.21470846760093  C 5.040440469701309 26.077460405472642  4.739653651577385 25.87630046604928  4.4863634537073835 25.622728331424035  C 4.232791319082139 25.369438133554052  4.031630404310022 25.06864985240697  3.8943823421817565 24.737564205584274  C 3.757134280053435 24.406478558761574  3.686490652192333 24.051588062062613  3.686490652192333 23.693182195021116  C 3.686490652192333 23.33477632797962  3.757134280053435 22.97988388058311  3.8943823421817565 22.64879823376041  C 4.031630404310022 22.317712586937713  4.232791319082139 22.01692430579063  4.4863634537073835 21.76363410792065  C 4.4863634537073835 21.76363410792065  4.568181561044412 21.681817951281197  4.568181561044412 21.681817951281197  C 4.882549973701373 21.36043732956593  5.093434887162573 20.952250544959874  5.173642480314527 20.50989348281052  C 5.253850073466538 20.067536420661163  5.199702351798351 19.6112946895868  5.018181639072338 19.2000000780279  C 4.845323212174321 18.796678424550336  4.5583025580992285 18.45270393990187  4.192452341532828 18.210419013735123  C 3.826602124966371 17.968134087568373  3.3978907408124996 17.838113089236657  2.9590908975640673 17.836363005046977  C 2.9590908975640673 17.836363005046977  2.7272726829386897 17.836363005046977  2.7272726829386897 17.836363005046977  C 2.0039549458115857 17.836363005046977  1.3102625742939153 17.54902495114478  0.7987997349847547 17.037562111835573  C 0.2873368956755371 16.526099272526366  0 15.832408546909791  0 15.109090809782671  C 0 14.385773072655553  0.2873368956755371 13.692081371690204  0.7987997349847547 13.180618532380993  C 1.3102625742939153 12.669155693071787  2.0039549458115857 12.381817639169586  2.7272726829386897 12.38181763916959  C 2.7272726829386897 12.38181763916959  2.849999843944204 12.38181763916959  2.849999843944204 12.38181763916959  C 3.301355900606495 12.371259977307432  3.7390972465968844 12.225161355605401  4.106316852843406 11.96251422546188  C 4.473536459089928 11.699867095318364  4.75324864191623 11.332820582999776  4.909090829289653 10.909090731754766  C 5.090611542015665 10.497796120195872  5.144759263683852 10.041554389121508  5.064551670531841 9.599197326972153  C 4.9843440773798875 9.1568402648228  4.773459163918687 8.748652504867966  4.459090751261726 8.427271883152697  C 4.459090751261726 8.427271883152697  4.377272643924755 8.345453775815695  4.377272643924755 8.345453775815695  C 4.1237005092995105 8.092163577945712  3.9225395945273362 7.791377247496182  3.785291532399072 7.460291600673486  C 3.6480434702708067 7.1292059538507875  3.5773998424096476 6.774314969477436  3.5773998424096476 6.41590910243594  C 3.5773998424096476 6.057503235394446  3.6480434702708067 5.702611763346706  3.785291532399072 5.371526116524008  C 3.9225395945273362 5.040440469701311  4.1237005092995105 4.739653651577392  4.377272643924755 4.486363453707412  C 4.630562841794699 4.232791319082164  4.931349659918624 4.031630404310027  5.262435306741338 3.894382342181741  C 5.593520953564052 3.757134280053453  5.948412425611764 3.686490652192317  6.306818292653247 3.686490652192317  C 6.665224159694787 3.686490652192317  7.020115144068143 3.757134280053453  7.3512007908908 3.894382342181741  C 7.682286437713515 4.031630404310027  7.983072768163027 4.232791319082164  8.236362966033028 4.486363453707412  C 8.236362966033028 4.486363453707412  8.318181073369999 4.568181561044414  8.318181073369999 4.568181561044414  C 8.63956169508532 4.882549973701346  9.047748479691336 5.09343488716255  9.490105541840705 5.173642480314536  C 9.932462603990075 5.25385007346652  10.38870531041323 5.199702351798354  10.799999921972073 5.018181639072317  C 10.799999921972073 5.018181639072317  10.909090731754759 5.018181639072317  10.909090731754759 5.018181639072317  C 11.312412385232335 4.845323212174318  11.656386869880805 4.55830255809925  11.898671796047552 4.1924523415328085  C 12.140956722214298 3.8266021249663678  12.270976745197231 3.3978907408125067  12.272726829386897 2.95909089756406  C 12.272726829386897 2.95909089756406  12.272726829386897 2.7272726829386915  12.272726829386897 2.7272726829386915  C 12.272726829386897 2.0039549458115733  12.560064883289101 1.310262574293942  13.071527722598319 0.7987997349847333  C 13.582990561907536 0.2873368956755247  14.276682262872896 0  15 0  C 15.723317737127102 0  16.417008462743695 0.2873368956755247  16.928471302052913 0.7987997349847333  C 17.43993414136213 1.310262574293942  17.727272195264277 2.0039549458115733  17.727272195264277 2.7272726829386915  C 17.727272195264277 2.7272726829386915  17.727272195264277 2.8499998439441967  17.727272195264277 2.8499998439441967  C 17.729022279454 3.2887996871926433  17.8590432777857 3.717511802858084  18.10132820395245 4.083362019424527  C 18.343613130119195 4.449212235990968  18.687587614767665 4.7362324023916464  19.09090926824524 4.909090829289646  C 19.502203879804142 5.090611542015685  19.95844561087847 5.14475926368385  20.40080267302784 5.064551670531866  C 20.84315973517721 4.98434407737988  21.251346519783283 4.773459163918677  21.572727141498547 4.459090751261744  C 21.572727141498547 4.459090751261744  21.65454329813798 4.377272643924741  21.65454329813798 4.377272643924741  C 21.90783349600798 4.123700509299496  22.20862177715503 3.9225395945273576  22.539707423977745 3.785291532399072  C 22.87079307080046 3.6480434702707853  23.22568551819694 3.5773998424096476  23.58409138523848 3.5773998424096476  C 23.942497252279964 3.5773998424096476  24.297387748978906 3.6480434702707853  24.62847339580162 3.785291532399072  C 24.959559042624278 3.9225395945273576  25.260345373073847 4.123700509299496  25.51363557094379 4.377272643924741  C 25.767207705569035 4.63056284179472  25.96836959568998 4.9313496599186415  26.105617657818243 5.262435306741338  C 26.242865719946565 5.593520953564035  26.313509347807667 5.9484124256117745  26.313509347807667 6.3068182926532685  C 26.313509347807667 6.665224159694764  26.242865719946565 7.020115144068118  26.105617657818243 7.351200790890815  C 25.96836959568998 7.682286437713511  25.767207705569035 7.9830727681630425  25.51363557094379 8.236362966033024  C 25.51363557094379 8.236362966033024  25.43181746360682 8.318181073370026  25.43181746360682 8.318181073370026  C 25.11744905094986 8.639561695085295  24.90656560051184 9.047748479691352  24.82635800735983 9.490105541840705  C 24.746150414207875 9.93246260399006  24.800296185178468 10.3887053104132  24.981816897904537 10.799999921972095  C 24.981816897904537 10.799999921972095  24.981816897904537 10.909090731754766  24.981816897904537 10.909090731754766  C 25.154675324802497 11.312412385232335  25.44169695422636 11.656386869880802  25.807547170792816 11.898671796047548  C 26.173397387359273 12.140956722214295  26.602109015350322 12.270976745197238  27.040908858598755 12.272726829386919  C 27.040908858598755 12.272726829386919  27.27272585403813 12.272726829386919  27.27272585403813 12.272726829386919  C 27.99604359116529 12.272726829386919  28.68973626747936 12.560064883289115  29.20119910678858 13.071527722598326  C 29.712661946097796 13.582990561907536  30 14.276682262872882  30 15  C 30 15.72331773712712  29.712661946097796 16.41700846274369  29.20119910678858 16.928471302052902  C 28.68973626747936 17.439934141362112  27.99604359116529 17.727272195264305  27.27272585403813 17.727272195264305  C 27.27272585403813 17.727272195264305  27.14999966838144 17.727272195264305  27.14999966838144 17.727272195264305  C 26.71119982513295 17.729022279453986  26.2824881971419 17.8590432777857  25.9166379805755 18.101328203952452  Z " fill-rule="nonzero" fill="#ffffff" stroke="none" fill-opacity="0" transform="matrix(1 0 0 1 310 6 )" />
    <path d="M 10.909091707103528 15.000000975348776  C 10.909091707103528 17.25934813279881  12.740654305573116 19.090909268245234  15.000000975348769 19.090909268245234  C 17.259348132798777 19.090909268245234  19.09090926824524 17.25934813279881  19.09090926824524 15.000000975348776  C 19.09090926824524 12.74065430557313  17.259348132798777 10.909091707103542  15.000000975348769 10.909091707103542  C 12.740654305573116 10.909091707103542  10.909091707103528 12.74065430557313  10.909091707103528 15.000000975348776  Z " stroke-width="3" stroke="#ffffff" fill="none" transform="matrix(1 0 0 1 310 6 )" mask="url(#clip4)" />
    <path d="M 25.9166379805755 18.101328203952452  C 25.550787764009044 18.3436131301192  25.263766134585182 18.687587614767665  25.090907707687165 19.090909268245234  C 24.909386994961153 19.502203879804128  24.85524122399056 19.958445610878492  24.935448817142515 20.400802673027847  C 25.015656410294525 20.843159735177203  25.226539860732544 21.251346519783258  25.540908273389505 21.57272714149853  C 25.540908273389505 21.57272714149853  25.622728331424014 21.65454329813798  25.622728331424014 21.65454329813798  C 25.87630046604926 21.90783349600796  26.077460405472664 22.20862177715504  26.21470846760093 22.539707423977738  C 26.351956529729193 22.870793070800442  26.422600157590352 23.225685518196947  26.422600157590352 23.584091385238445  C 26.422600157590352 23.942497252279942  26.351956529729193 24.297387748978903  26.21470846760093 24.628473395801603  C 26.077460405472664 24.959559042624303  25.87630046604926 25.26034537307383  25.622728331424014 25.513635570943812  C 25.36943813355407 25.767207705569056  25.068649852406963 25.96836959568997  24.73756420558425 26.105617657818257  C 24.40647855876159 26.242865719946543  24.051588062062592 26.31350934780768  23.69318219502111 26.31350934780768  C 23.334776327979625 26.31350934780768  22.97988388058309 26.242865719946543  22.64879823376043 26.105617657818257  C 22.317712586937716 25.96836959568997  22.01692430579061 25.767207705569056  21.763634107920666 25.513635570943812  C 21.763634107920666 25.513635570943812  21.681817951281175 25.43181746360681  21.681817951281175 25.43181746360681  C 21.36043732956591 25.117449050949876  20.952250544959895 24.90656560051184  20.509893482810526 24.82635800735985  C 20.067536420661156 24.746150414207865  19.611294689586828 24.800296185178482  19.200000078027927 24.981816897904523  C 18.79667842455035 25.15467532480252  18.45270393990188 25.44169695422636  18.210419013735134 25.807547170792805  C 17.968134087568387 26.173397387359245  17.838113089236685 26.602109015350294  17.836363005046962 27.04090885859874  C 17.836363005046962 27.04090885859874  17.836363005046962 27.272725854038143  17.836363005046962 27.272725854038143  C 17.836363005046962 27.99604359116526  17.54902495114476 28.68973626747939  17.03756211183554 29.201199106788593  C 16.52609927252638 29.712661946097803  15.832408546909791 30  15.109090809782685 30  C 14.385773072655525 30  13.692081371690222 29.712661946097803  13.180618532381004 29.201199106788593  C 12.669155693071787 28.68973626747939  12.381817639169583 27.99604359116526  12.381817639169583 27.272725854038143  C 12.381817639169583 27.272725854038143  12.381817639169583 27.14999966838141  12.381817639169583 27.14999966838141  C 12.371259977307432 26.698643611719113  12.225161355605394 26.26090177805432  11.96251422546186 25.893682171807818  C 11.699867095318382 25.526462565561317  11.332820582999773 25.2467498950606  10.909090731754759 25.09090770768719  C 10.535800665189186 24.9261599161231  10.125486142146826 24.866335154957568  9.722130916406627 24.916650624267284  C 9.681065446955586 24.92177322646999  9.64007211209963 24.92803745556111  9.59919732697216 24.93544881714252  C 9.15684026482279 25.015656410294508  8.748652504867948 25.226539860732547  8.427271883152684 25.54090827338948  C 8.427271883152684 25.54090827338948  8.345453775815713 25.622728331424035  8.345453775815713 25.622728331424035  C 8.092163577945712 25.87630046604928  7.791377247496199 26.077460405472642  7.460291600673486 26.21470846760093  C 7.1292059538507715 26.351956529729208  6.774314969477416 26.422600157590352  6.415909102435933 26.422600157590352  C 6.057503235394449 26.422600157590352  5.702611763346681 26.351956529729208  5.371526116524024 26.21470846760093  C 5.040440469701309 26.077460405472642  4.739653651577385 25.87630046604928  4.4863634537073835 25.622728331424035  C 4.232791319082139 25.369438133554052  4.031630404310022 25.06864985240697  3.8943823421817565 24.737564205584274  C 3.757134280053435 24.406478558761574  3.686490652192333 24.051588062062613  3.686490652192333 23.693182195021116  C 3.686490652192333 23.33477632797962  3.757134280053435 22.97988388058311  3.8943823421817565 22.64879823376041  C 4.031630404310022 22.317712586937713  4.232791319082139 22.01692430579063  4.4863634537073835 21.76363410792065  C 4.4863634537073835 21.76363410792065  4.568181561044412 21.681817951281197  4.568181561044412 21.681817951281197  C 4.882549973701373 21.36043732956593  5.093434887162573 20.952250544959874  5.173642480314527 20.50989348281052  C 5.253850073466538 20.067536420661163  5.199702351798351 19.6112946895868  5.018181639072338 19.2000000780279  C 4.845323212174321 18.796678424550336  4.5583025580992285 18.45270393990187  4.192452341532828 18.210419013735123  C 3.826602124966371 17.968134087568373  3.3978907408124996 17.838113089236657  2.9590908975640673 17.836363005046977  C 2.9590908975640673 17.836363005046977  2.7272726829386897 17.836363005046977  2.7272726829386897 17.836363005046977  C 2.0039549458115857 17.836363005046977  1.3102625742939153 17.54902495114478  0.7987997349847547 17.037562111835573  C 0.2873368956755371 16.526099272526366  0 15.832408546909791  0 15.109090809782671  C 0 14.385773072655553  0.2873368956755371 13.692081371690204  0.7987997349847547 13.180618532380993  C 1.3102625742939153 12.669155693071787  2.0039549458115857 12.381817639169586  2.7272726829386897 12.38181763916959  C 2.7272726829386897 12.38181763916959  2.849999843944204 12.38181763916959  2.849999843944204 12.38181763916959  C 3.301355900606495 12.371259977307432  3.7390972465968844 12.225161355605401  4.106316852843406 11.96251422546188  C 4.473536459089928 11.699867095318364  4.75324864191623 11.332820582999776  4.909090829289653 10.909090731754766  C 5.090611542015665 10.497796120195872  5.144759263683852 10.041554389121508  5.064551670531841 9.599197326972153  C 4.9843440773798875 9.1568402648228  4.773459163918687 8.748652504867966  4.459090751261726 8.427271883152697  C 4.459090751261726 8.427271883152697  4.377272643924755 8.345453775815695  4.377272643924755 8.345453775815695  C 4.1237005092995105 8.092163577945712  3.9225395945273362 7.791377247496182  3.785291532399072 7.460291600673486  C 3.6480434702708067 7.1292059538507875  3.5773998424096476 6.774314969477436  3.5773998424096476 6.41590910243594  C 3.5773998424096476 6.057503235394446  3.6480434702708067 5.702611763346706  3.785291532399072 5.371526116524008  C 3.9225395945273362 5.040440469701311  4.1237005092995105 4.739653651577392  4.377272643924755 4.486363453707412  C 4.630562841794699 4.232791319082164  4.931349659918624 4.031630404310027  5.262435306741338 3.894382342181741  C 5.593520953564052 3.757134280053453  5.948412425611764 3.686490652192317  6.306818292653247 3.686490652192317  C 6.665224159694787 3.686490652192317  7.020115144068143 3.757134280053453  7.3512007908908 3.894382342181741  C 7.682286437713515 4.031630404310027  7.983072768163027 4.232791319082164  8.236362966033028 4.486363453707412  C 8.236362966033028 4.486363453707412  8.318181073369999 4.568181561044414  8.318181073369999 4.568181561044414  C 8.63956169508532 4.882549973701346  9.047748479691336 5.09343488716255  9.490105541840705 5.173642480314536  C 9.932462603990075 5.25385007346652  10.38870531041323 5.199702351798354  10.799999921972073 5.018181639072317  C 10.799999921972073 5.018181639072317  10.909090731754759 5.018181639072317  10.909090731754759 5.018181639072317  C 11.312412385232335 4.845323212174318  11.656386869880805 4.55830255809925  11.898671796047552 4.1924523415328085  C 12.140956722214298 3.8266021249663678  12.270976745197231 3.3978907408125067  12.272726829386897 2.95909089756406  C 12.272726829386897 2.95909089756406  12.272726829386897 2.7272726829386915  12.272726829386897 2.7272726829386915  C 12.272726829386897 2.0039549458115733  12.560064883289101 1.310262574293942  13.071527722598319 0.7987997349847333  C 13.582990561907536 0.2873368956755247  14.276682262872896 0  15 0  C 15.723317737127102 0  16.417008462743695 0.2873368956755247  16.928471302052913 0.7987997349847333  C 17.43993414136213 1.310262574293942  17.727272195264277 2.0039549458115733  17.727272195264277 2.7272726829386915  C 17.727272195264277 2.7272726829386915  17.727272195264277 2.8499998439441967  17.727272195264277 2.8499998439441967  C 17.729022279454 3.2887996871926433  17.8590432777857 3.717511802858084  18.10132820395245 4.083362019424527  C 18.343613130119195 4.449212235990968  18.687587614767665 4.7362324023916464  19.09090926824524 4.909090829289646  C 19.502203879804142 5.090611542015685  19.95844561087847 5.14475926368385  20.40080267302784 5.064551670531866  C 20.84315973517721 4.98434407737988  21.251346519783283 4.773459163918677  21.572727141498547 4.459090751261744  C 21.572727141498547 4.459090751261744  21.65454329813798 4.377272643924741  21.65454329813798 4.377272643924741  C 21.90783349600798 4.123700509299496  22.20862177715503 3.9225395945273576  22.539707423977745 3.785291532399072  C 22.87079307080046 3.6480434702707853  23.22568551819694 3.5773998424096476  23.58409138523848 3.5773998424096476  C 23.942497252279964 3.5773998424096476  24.297387748978906 3.6480434702707853  24.62847339580162 3.785291532399072  C 24.959559042624278 3.9225395945273576  25.260345373073847 4.123700509299496  25.51363557094379 4.377272643924741  C 25.767207705569035 4.63056284179472  25.96836959568998 4.9313496599186415  26.105617657818243 5.262435306741338  C 26.242865719946565 5.593520953564035  26.313509347807667 5.9484124256117745  26.313509347807667 6.3068182926532685  C 26.313509347807667 6.665224159694764  26.242865719946565 7.020115144068118  26.105617657818243 7.351200790890815  C 25.96836959568998 7.682286437713511  25.767207705569035 7.9830727681630425  25.51363557094379 8.236362966033024  C 25.51363557094379 8.236362966033024  25.43181746360682 8.318181073370026  25.43181746360682 8.318181073370026  C 25.11744905094986 8.639561695085295  24.90656560051184 9.047748479691352  24.82635800735983 9.490105541840705  C 24.746150414207875 9.93246260399006  24.800296185178468 10.3887053104132  24.981816897904537 10.799999921972095  C 24.981816897904537 10.799999921972095  24.981816897904537 10.909090731754766  24.981816897904537 10.909090731754766  C 25.154675324802497 11.312412385232335  25.44169695422636 11.656386869880802  25.807547170792816 11.898671796047548  C 26.173397387359273 12.140956722214295  26.602109015350322 12.270976745197238  27.040908858598755 12.272726829386919  C 27.040908858598755 12.272726829386919  27.27272585403813 12.272726829386919  27.27272585403813 12.272726829386919  C 27.99604359116529 12.272726829386919  28.68973626747936 12.560064883289115  29.20119910678858 13.071527722598326  C 29.712661946097796 13.582990561907536  30 14.276682262872882  30 15  C 30 15.72331773712712  29.712661946097796 16.41700846274369  29.20119910678858 16.928471302052902  C 28.68973626747936 17.439934141362112  27.99604359116529 17.727272195264305  27.27272585403813 17.727272195264305  C 27.27272585403813 17.727272195264305  27.14999966838144 17.727272195264305  27.14999966838144 17.727272195264305  C 26.71119982513295 17.729022279453986  26.2824881971419 17.8590432777857  25.9166379805755 18.101328203952452  Z " stroke-width="3" stroke="#ffffff" fill="none" transform="matrix(1 0 0 1 310 6 )" mask="url(#clip4)" />
  </g>
</svg>