<?xml version="1.0" encoding="utf-8"?>
<svg version="1.1" xmlns:xlink="http://www.w3.org/1999/xlink" width="375px" height="45px" xmlns="http://www.w3.org/2000/svg">
  <g transform="matrix(1 0 0 1 -30 -15 )">
    <path d="M 0 44  L 0.49734748010610075 35.05813953488372  C 0.49734748010610075 35.05813953488372  2.486737400530504 21.71511627906977  12.185013262599469 10.988372093023255  C 21.883289124668437 0.2616279069767442  34.814323607427056 0  34.814323607427056 0  L 98.47480106100795 0  C 98.47480106100795 0  102.45358090185677 0.5232558139534884  102.95092838196288 4.709302325581396  C 103.44827586206897 8.895348837209301  103.94562334217507 12.55813953488372  103.94562334217507 12.55813953488372  C 103.94562334217507 12.55813953488372  104.52637622613855 20.480297250255692  110.41114058355437 25.901162790697676  C 117.31960747523078 32.26503190011742  126.3262599469496 32  126.3262599469496 32  L 249.17108753315648 32  C 249.17108753315648 32  257.54033330389194 32.654062064336365  264.58885941644564 25.901162790697676  C 270.1037628461434 20.617563528964755  270.5570291777188 12.55813953488372  270.5570291777188 12.55813953488372  C 270.5570291777188 12.55813953488372  270.8057029177719 9.418604651162791  271.55172413793105 4.709302325581396  C 272.2977453580902 0  279.01193633952255 0  279.01193633952255 0  L 343.16976127320953 0  C 343.16976127320953 0  356.0997439124489 2.68612014742173  364.0583554376658 12.55813953488372  C 371.9471693448792 22.343580574358125  374.5026525198939 35.05813953488372  374.5026525198939 35.05813953488372  L 374.5026525198939 44  L 0 44  Z " fill-rule="nonzero" fill="#090a0a" stroke="none" fill-opacity="0.9921568627450981" transform="matrix(1 0 0 1 30 15 )" />
  </g>
</svg>