<?xml version="1.0" encoding="utf-8"?>
<svg version="1.1" xmlns:xlink="http://www.w3.org/1999/xlink" width="20px" height="16px" xmlns="http://www.w3.org/2000/svg">
  <g transform="matrix(1 0 0 1 -341 -29 )">
    <path d="M 10.94704684317719 14.55070967741937  C 10.451459606245749 15.090236559139793  10.135777325186723 15.360000000000007  10 15.360000000000007  C 9.864222674813334 15.360000000000007  9.548540393754251 15.090236559139793  9.05295315682281 14.55070967741937  C 8.557365919891367 14.011182795698915  8.309572301425646 13.668014336917562  8.309572301425646 13.52120430107528  C 8.309572301425646 13.28630824372761  8.521724372029894 13.088114695340513  8.946028513238275 12.926623655913984  C 9.370332654446713 12.765132616487456  9.72165648336727 12.684387096774207  10 12.684387096774207  C 10.27834351663273 12.684387096774207  10.629667345553287 12.765132616487456  11.053971486761725 12.926623655913984  C 11.478275627970106 13.088114695340513  11.690427698574354 13.28630824372761  11.690427698574354 13.52120430107528  C 11.690427698574354 13.668014336917562  11.442634080108633 14.011182795698915  10.94704684317719 14.55070967741937  Z M 13.701629327902253 11.550279569892488  C 13.189069925322485 12.100817204301075  12.871690427698582 12.376086021505367  12.749490835030542 12.376086021505367  C 12.735913102511859 12.376086021505367  12.600135777325193 12.284329749103957  12.342158859470487 12.100817204301075  C 12.084181941615725 11.917304659498223  11.73964697895451 11.73379211469534  11.308553971486788 11.550279569892488  C 10.877460964019008 11.366767025089606  10.441276306856764 11.275010752688164  10 11.275010752688164  C 9.558723693143236 11.275010752688164  9.122539035980992 11.366767025089606  8.691446028513212 11.550279569892488  C 8.26035302104549 11.73379211469534  7.917515274949096 11.917304659498223  7.662932790224033 12.100817204301075  C 7.408350305498971 12.284329749103957  7.270875763747426 12.376086021505367  7.250509164969458 12.376086021505367  C 7.1283095723014185 12.376086021505367  6.810930074677515 12.100817204301075  6.298370672097747 11.550279569892488  C 5.785811269517978 10.999741935483872  5.529531568228094 10.658408602150546  5.529531568228094 10.526279569892479  C 5.529531568228094 10.430853046594985  5.5634758995248035 10.346437275985652  5.631364562118108 10.27303225806451  C 6.160896130346259 9.707813620071677  6.82620502376102 9.263713261648748  7.627291242362503 8.940731182795693  C 8.428377460964043 8.617749103942666  9.219280380176485 8.456258064516138  10 8.456258064516138  C 10.780719619823515 8.456258064516138  11.571622539035957 8.617749103942666  12.372708757637497 8.940731182795693  C 13.17379497623898 9.263713261648748  13.83910386965374 9.707813620071677  14.368635437881892 10.27303225806451  C 14.436524100475197 10.346437275985652  14.470468431771906 10.430853046594985  14.470468431771906 10.526279569892479  C 14.470468431771906 10.658408602150546  14.214188730482022 10.999741935483872  13.701629327902253 11.550279569892488  Z M 16.4663951120163 8.555354838709688  C 15.957230142566175 9.105892473118274  15.644942294636792 9.381161290322598  15.529531568228094 9.381161290322598  C 15.454854039375448 9.381161290322598  15.376782077393102 9.351799283154135  15.295315682281057 9.29307526881721  C 14.372029871011534 8.522322580645172  13.516632722335373 7.955268817204312  12.729124236252574 7.591913978494631  C 11.941615750169717 7.2285591397849505  11.031907671418878 7.046881720430125  10 7.046881720430125  C 9.42294636795657 7.046881720430125  8.844195519348261 7.127627240143374  8.263747454175132 7.2891182795699025  C 7.683299389002059 7.45060931899643  7.177528852681576 7.6451326164874445  6.746435845213853 7.872688172043005  C 6.315342837746073 8.100243727598565  5.930074677528864 8.327799283154127  5.590631364562114 8.555354838709688  C 5.2511880515953635 8.782910394265249  4.983027834351674 8.977433691756262  4.786150712830931 9.13892473118279  C 4.589273591310246 9.300415770609318  4.484046164290589 9.381161290322598  4.470468431771906 9.381161290322598  C 4.355057705363208 9.381161290322598  4.042769857433825 9.105892473118274  3.5336048879836994 8.555354838709688  C 3.0244399185336306 8.004817204301071  2.7698574338085677 7.663483870967744  2.7698574338085677 7.531354838709679  C 2.7698574338085677 7.4432688172042925  2.80380176510522 7.362523297491043  2.8716904276985815 7.2891182795699025  C 3.7678207739307368 6.320172043010749  4.854039375424293 5.567770609318996  6.1303462321792495 5.031913978494625  C 7.406653088934149 4.496057347670255  8.696537678207733 4.228129032258069  10 4.228129032258069  C 11.303462321792267 4.228129032258069  12.59334691106585 4.496057347670255  13.86965376782075 5.031913978494625  C 15.145960624575707 5.567770609318996  16.232179226069263 6.320172043010749  17.12830957230142 7.2891182795699025  C 17.19619823489478 7.362523297491043  17.230142566191432 7.4432688172042925  17.230142566191432 7.531354838709679  C 17.230142566191432 7.663483870967744  16.97556008146637 8.004817204301071  16.4663951120163 8.555354838709688  Z M 19.231160896130348 5.571440860215049  C 18.71860149355058 6.121978494623666  18.40461642905632 6.397247311827959  18.289205702647678 6.397247311827959  C 18.214528173794974 6.397247311827959  18.13985064494227 6.364215053763443  18.065173116089625 6.2981505376344105  C 16.849966055668688 5.145691756272405  15.588934147997293 4.277677419354844  14.282077393075383 3.6941075268817256  C 12.975220638153417 3.1105376344086078  11.547861507128289 2.818752688172041  10 2.818752688172041  C 8.452138492871711 2.818752688172041  7.0247793618465835 3.1105376344086078  5.717922606924617 3.6941075268817256  C 4.411065852002707 4.277677419354844  3.1500339443313123 5.145691756272405  1.9348268839103753 6.2981505376344105  C 1.8601493550577288 6.364215053763443  1.7854718262050255 6.397247311827959  1.7107942973523222 6.397247311827959  C 1.5953835709436248 6.397247311827959  1.2813985064494204 6.121978494623666  0.7688391038696523 5.571440860215049  C 0.2562797012898841 5.020903225806448  0 4.679569892473122  0 4.5474408602150564  C 0 4.452014336917561  0.03394433129665231 4.367598566308243  0.10183299389001377 4.294193548387102  C 1.3713509843856286 2.9288602150537675  2.881873727087566 1.8718279569892426  4.633401221995939 1.1230967741935425  C 6.3849287169042555 0.3743655913978425  8.17379497623898 0  10 0  C 11.82620502376102 0  13.615071283095745 0.3743655913978425  15.366598778004061 1.1230967741935425  C 17.118126272912434 1.8718279569892426  18.62864901561437 2.9288602150537675  19.898167006109986 4.294193548387102  C 19.966055668703348 4.367598566308243  20 4.452014336917561  20 4.5474408602150564  C 20 4.679569892473122  19.743720298710116 5.020903225806448  19.231160896130348 5.571440860215049  Z " fill-rule="nonzero" fill="#ffffff" stroke="none" transform="matrix(1 0 0 1 341 29 )" />
  </g>
</svg>