<?xml version="1.0" encoding="utf-8"?>
<svg version="1.1" xmlns:xlink="http://www.w3.org/1999/xlink" width="20px" height="12px" xmlns="http://www.w3.org/2000/svg">
  <g transform="matrix(1 0 0 1 -367 -31 )">
    <path d="M 2.2222222222222285 2.240000000000009  L 16.666666666666686 2.240000000000009  L 16.666666666666686 9  L 2.2222222222222285 9  L 2.2222222222222285 2.240000000000009  Z M 17.77777777777777 9.799999999999983  L 17.77777777777777 7.280000000000001  L 18.888888888888914 7.280000000000001  L 18.888888888888914 3.9199999999999875  L 17.77777777777777 3.9199999999999875  L 17.77777777777777 1.4000000000000057  C 17.77777777777777 1.318333333333328  17.751736111111086 1.2512499999999989  17.69965277777777 1.1987499999999898  C 17.647569444444457 1.146250000000009  17.581018518518533 1.1200000000000045  17.5 1.1200000000000045  L 1.3888888888889142 1.1200000000000045  C 1.307870370370381 1.1200000000000045  1.241319444444457 1.146250000000009  1.1892361111110858 1.1987499999999898  C 1.1371527777777715 1.2512499999999989  1.1111111111110858 1.318333333333328  1.1111111111110858 1.4000000000000057  L 1.1111111111110858 9.799999999999983  C 1.1111111111110858 9.88166666666666  1.1371527777777715 9.94874999999999  1.1892361111110858 10.001249999999999  C 1.241319444444457 10.05374999999998  1.307870370370381 10.079999999999984  1.3888888888889142 10  L 17.5 10  C 17.581018518518533 10.079999999999984  17.647569444444457 10.05374999999998  17.69965277777777 10.001249999999999  C 17.751736111111086 9.94874999999999  17.77777777777777 9.88166666666666  17.77777777777777 9.799999999999983  Z M 19.674479166666686 3.128124999999983  C 19.891493055555543 3.346874999999983  20 3.610833333333318  20 3.9199999999999875  L 20 7.280000000000001  C 20 7.589166666666671  19.891493055555543 7.853125000000006  19.674479166666686 8.071874999999977  C 19.45746527777777 8.290624999999977  19.195601851851848 8.399999999999977  18.888888888888914 8.399999999999977  L 18.888888888888914 9.799999999999983  C 18.888888888888914 10.185000000000002  18.752893518518533 10.51458333333332  18.48090277777777 10.788749999999993  C 18.208912037037067 11.062916666666666  17.881944444444457 11.199999999999989  17.5 11  L 1.3888888888889142 11  C 1.006944444444457 11.199999999999989  0.6799768518518476 11.062916666666666  0.40798611111108585 10.788749999999993  C 0.1359953703703809 10.51458333333332  0 10.185000000000002  0 9.799999999999983  L 0 1.4000000000000057  C 0 1.0149999999999864  0.1359953703703809 0.6854166666666686  0.40798611111108585 0.41124999999999545  C 0.6799768518518476 0.13708333333332234  1.006944444444457 0  1.3888888888889142 0  L 17.5 0  C 17.881944444444457 0  18.208912037037067 0.13708333333332234  18.48090277777777 0.41124999999999545  C 18.752893518518533 0.6854166666666686  18.888888888888914 1.0149999999999864  18.888888888888914 1.4000000000000057  L 18.888888888888914 2.8000000000000114  C 19.195601851851848 2.799999999999983  19.45746527777777 2.909374999999983  19.674479166666686 3.128124999999983  Z " fill-rule="nonzero" fill="#ffffff" stroke="none" transform="matrix(1 0 0 1 367 31 )" />
  </g>
</svg>