<?xml version="1.0" encoding="utf-8"?>
<svg version="1.1" xmlns:xlink="http://www.w3.org/1999/xlink" width="20px" height="16px" xmlns="http://www.w3.org/2000/svg">
  <g transform="matrix(1 0 0 1 -314 -29 )">
    <path d="M 3.4458705357142776 11.778819444444464  C 3.5295758928571104 11.868402777777797  3.571428571428555 11.982870370370376  3.571428571428555 12.122222222222202  L 3.571428571428555 14.98888888888887  C 3.571428571428555 15.128240740740754  3.5295758928571104 15.242708333333333  3.4458705357142776 15.332291666666666  C 3.362165178571445 15.421875  3.2552083333333712 15.466666666666667  3.125 15.466666666666667  L 0.4464285714285552 15.466666666666667  C 0.3162202380952408 15.466666666666667  0.20926339285711038 15.421875  0.1255580357142776 15.332291666666666  C 0.04185267857144481 15.242708333333333  0 15.128240740740754  0 14.98888888888887  L 0 12.122222222222202  C 0 11.982870370370376  0.04185267857144481 11.868402777777797  0.1255580357142776 11.778819444444464  C 0.20926339285711038 11.689236111111132  0.3162202380952408 11.644444444444465  0.4464285714285552 11.644444444444465  L 3.125 11.644444444444465  C 3.2552083333333712 11.644444444444465  3.362165178571445 11.689236111111132  3.4458705357142776 11.778819444444464  Z M 8.80301339285711 9.867708333333333  C 8.88671875 9.957291666666666  8.928571428571445 10.071759259259245  8.928571428571445 10.211111111111132  L 8.928571428571445 14.98888888888887  C 8.928571428571445 15.128240740740754  8.88671875 15.242708333333333  8.80301339285711 15.332291666666666  C 8.719308035714278 15.421875  8.612351190476204 15.466666666666667  8.48214285714289 15.466666666666667  L 5.803571428571445 15.466666666666667  C 5.673363095238074 15.466666666666667  5.56640625 15.421875  5.48270089285711 15.332291666666666  C 5.398995535714278 15.242708333333333  5.35714285714289 15.128240740740754  5.35714285714289 14.98888888888887  L 5.35714285714289 10.211111111111132  C 5.35714285714289 10.071759259259245  5.398995535714278 9.957291666666666  5.48270089285711 9.867708333333333  C 5.56640625 9.778125  5.673363095238074 9.733333333333333  5.803571428571445 9.733333333333333  L 8.48214285714289 9.733333333333333  C 8.612351190476204 9.733333333333333  8.719308035714278 9.778125  8.80301339285711 9.867708333333333  Z M 13.25 5.911111111111101  C 13.33370535714289 6.000694444444434  14.285714285714278 6.249537037037044  14.285714285714278 6.388888888888899  L 14.285714285714278 14.98888888888887  C 14.285714285714278 15.128240740740754  14.24386160714289 15.242708333333333  14.16015625 15.332291666666666  C 14.07645089285711 15.421875  13.969494047619037 15.466666666666667  13.839285714285722 15.466666666666667  L 11.160714285714278 15.466666666666667  C 11.030505952380963 15.466666666666667  10.92354910714289 15.421875  10.83984375 15.332291666666666  C 10.75613839285711 15.242708333333333  10.714285714285722 15.128240740740754  10.714285714285722 14.98888888888887  L 10.714285714285722 6.388888888888899  C 10.714285714285722 6.249537037037044  10.75613839285711 6.135069444444435  10.83984375 6.045486111111101  C 10.92354910714289 5.9559027777777676  11.030505952380963 5.911111111111101  11.160714285714278 5.911111111111101  L 13.839285714285722 5.911111111111101  C 13.969494047619037 5.911111111111101  13.16629464285711 5.821527777777768  13.25 5.911111111111101  Z M 19.51729910714289 0.31215277777778283  C 19.601004464285722 0.4017361111111162  19.64285714285711 0.5162037037037105  19.64285714285711 0.6555555555555505  L 19.64285714285711 14.98888888888887  C 19.64285714285711 15.128240740740754  19.601004464285722 15.242708333333333  19.51729910714289 15.332291666666666  C 19.43359375 15.421875  19.326636904761926 15.466666666666667  19.196428571428555 15.466666666666667  L 16.51785714285711 15.466666666666667  C 16.387648809523796 15.466666666666667  16.280691964285722 15.421875  16.19698660714289 15.332291666666666  C 16.11328125 15.242708333333333  16.071428571428555 15.128240740740754  16 14.98888888888887  L 16 0.6555555555555505  C 16.071428571428555 0.5162037037037105  16.11328125 0.4017361111111162  16.19698660714289 0.31215277777778283  C 16.280691964285722 0.2225694444444495  16.387648809523796 0.17777777777778284  16.51785714285711 0.17777777777778284  L 19.196428571428555 0.17777777777778284  C 19.326636904761926 0.17777777777778284  19.43359375 0.2225694444444495  19.51729910714289 0.31215277777778283  Z " fill-rule="nonzero" fill="#ffffff" stroke="none" transform="matrix(1 0 0 1 314 29 )" />
  </g>
</svg>