<?xml version="1.0" encoding="utf-8"?>
<svg version="1.1" xmlns:xlink="http://www.w3.org/1999/xlink" width="50px" height="33px" xmlns="http://www.w3.org/2000/svg">
  <g transform="matrix(1 0 0 1 -234 -20 )">
    <path d="M 1.019965277777778 31.990234375  C 0.33998842592592593 31.317057291666668  0 30.5078125  0 29.5625  L 0 16  L 50 16  L 50 29.5625  C 50 30.5078125  49.660011574074076 31.317057291666668  48.98003472222222 31.990234375  C 48.30005787037038 32.663411458333336  47.48263888888889 33  46.52777777777778 33  L 3.4722222222222223 33  C 2.517361111111111 33  1.6999421296296298 32.663411458333336  1.019965277777778 31.990234375  Z M 22.22222222222222 24.75  L 13.88888888888889 24.75  L 13.88888888888889 27.5  L 22.22222222222222 27.5  L 22.22222222222222 24.75  Z M 11.11111111111111 24.75  L 5.555555555555555 24.75  L 5.555555555555555 27.5  L 11.11111111111111 27.5  L 11.11111111111111 24.75  Z M 3.4722222222222223 0  L 46.52777777777778 0  C 47.48263888888889 0  48.30005787037038 0.3365885416666634  48.98003472222222 1.0097656250000013  C 49.660011574074076 1.6829427083333317  50 2.4921875000000013  50 3.4374999999999987  L 50 8.25  L 0 8.25  L 0 3.4374999999999987  C 0 2.4921875000000013  0.33998842592592593 1.6829427083333317  1.019965277777778 1.0097656250000013  C 1.6999421296296298 0.3365885416666634  2.517361111111111 0  3.4722222222222223 0  Z " fill-rule="nonzero" fill="#ffffff" stroke="none" transform="matrix(1 0 0 1 234 20 )" />
  </g>
</svg>