<?xml version="1.0" encoding="utf-8"?>
<svg version="1.1" xmlns:xlink="http://www.w3.org/1999/xlink" width="22px" height="22px" xmlns="http://www.w3.org/2000/svg">
  <g transform="matrix(1 0 0 1 -43 -523 )">
    <path d="M 12.475260416666666 15.024739583333332  C 12.561197916666666 15.110677083333332  12.604166666666666 15.220486111111109  12.604166666666666 15.354166666666668  L 12.604166666666666 17.645833333333336  C 12.604166666666666 17.77951388888889  12.561197916666666 17.889322916666664  12.475260416666666 17.975260416666664  C 12.389322916666666 18.061197916666664  12.27951388888889 18.104166666666664  12.145833333333334 18.104166666666664  L 9.854166666666668 18.104166666666664  C 9.720486111111112 18.104166666666664  9.610677083333332 18.061197916666664  9.524739583333332 17.975260416666664  C 9.438802083333332 17.889322916666664  9.395833333333332 17.77951388888889  9.395833333333332 17.645833333333336  L 9.395833333333332 15.354166666666668  C 9.395833333333332 15.220486111111109  9.438802083333332 15.110677083333332  9.524739583333332 15.024739583333332  C 9.610677083333332 14.938802083333332  9.720486111111112 14.895833333333332  9.854166666666668 14.895833333333332  L 12.145833333333334 14.895833333333332  C 12.27951388888889 14.895833333333332  12.389322916666666 14.938802083333332  12.475260416666666 15.024739583333332  Z M 14.702473958333334 5.177734375  C 15.748046875 6.032335069444443  16.270833333333336 7.056423611111109  16.270833333333336 8.25  C 16.270833333333336 8.727430555555554  16.19921875 9.157118055555554  16.055989583333336 9.5390625  C 15.912760416666666 9.921006944444443  15.695529513888891 10.250434027777777  15.404296875 10.52734375  C 15.11306423611111 10.80425347222222  14.864800347222225 11.014322916666668  14.659505208333334 11.157552083333332  C 14.454210069444446 11.30078125  14.170138888888891 11.47265625  13.807291666666666 11.673177083333332  C 13.50173611111111 11.845052083333332  13.27973090277778 11.978732638888886  13.141276041666666 12.07421875  C 13.002821180555557 12.169704861111109  12.87868923611111 12.284288194444446  12.768880208333334 12.41796875  C 12.659071180555557 12.551649305555554  12.604166666666666 12.690104166666668  12.604166666666666 12.833333333333332  L 12.604166666666666 13.291666666666668  C 12.604166666666666 13.425347222222223  12.561197916666666 13.53515625  12.475260416666666 13.62109375  C 12.389322916666666 13.70703125  12.27951388888889 13.75  12.145833333333334 13.75  L 9.854166666666668 13.75  C 9.720486111111112 13.75  9.610677083333332 13.70703125  9.524739583333332 13.62109375  C 9.438802083333332 13.53515625  9.395833333333332 13.425347222222223  9.395833333333332 13.291666666666668  L 9.395833333333332 12.317708333333332  C 9.395833333333332 11.983506944444446  9.445963541666668 11.675564236111109  9.546223958333332 11.393880208333332  C 9.646484375 11.112196180555554  9.761067708333332 10.885416666666666  9.889973958333332 10.713541666666666  C 10.018880208333332 10.541666666666666  10.205078125 10.372178819444443  10.448567708333332 10.205078125  C 10.692057291666668 10.037977430555554  10.887803819444446 9.91623263888889  11.035807291666666 9.83984375  C 11.183810763888891 9.76345486111111  11.39626736111111 9.663194444444443  11.673177083333334 9.5390625  C 12.179253472222223 9.30034722222222  12.53732638888889 9.095052083333334  12.747395833333334 8.923177083333334  C 12.95746527777778 8.751302083333334  13.062500000000002 8.51736111111111  13.0625 8.221354166666666  C 13.062500000000002 7.820312499999997  12.854817708333334 7.478949652777775  12.439453125 7.197265625  C 12.024088541666668 6.9155815972222205  11.56814236111111 6.774739583333334  11.071614583333334 6.774739583333334  C 10.536892361111112 6.774739583333334  10.083333333333332 6.903645833333334  9.7109375 7.161458333333334  C 9.434027777777779 7.3524305555555545  9.052083333333332 7.748697916666666  8.565104166666668 8.350260416666666  C 8.479166666666668 8.464843749999998  8.359809027777779 8.522135416666666  8.20703125 8.522135416666666  C 8.101996527777779 8.522135416666666  8.011284722222223 8.493489583333332  7.934895833333333 8.436197916666666  L 6.388020833333333 7.26171875  C 6.292534722222223 7.1948784722222205  6.235243055555555 7.099392361111109  6.216145833333333 6.975260416666666  C 6.1970486111111125 6.8511284722222205  6.22092013888889 6.741319444444443  6.287760416666667 6.645833333333334  C 7.452690972222223 4.8125  9.118923611111112 3.895833333333334  11.286458333333334 3.895833333333334  C 12.518229166666666 3.895833333333334  13.656901041666666 4.3231336805555545  14.702473958333334 5.177734375  Z M 14.559244791666666 2.563802083333334  C 13.427734375 2.076822916666666  12.241319444444446 1.8333333333333341  11 1.8333333333333341  C 9.758680555555555 1.8333333333333341  8.572265625 2.076822916666666  7.440755208333333 2.563802083333334  C 6.309244791666667 3.05078125  5.335286458333334 3.702473958333334  4.518880208333334 4.518880208333334  C 3.7024739583333335 5.335286458333334  3.05078125 6.309244791666666  2.563802083333333 7.440755208333334  C 2.076822916666667 8.572265625  1.8333333333333333 9.758680555555554  1.8333333333333333 11  C 1.8333333333333333 12.241319444444446  2.076822916666667 13.427734375  2.563802083333333 14.559244791666668  C 3.05078125 15.690755208333332  3.7024739583333335 16.664713541666664  4.518880208333334 17.481119791666664  C 5.335286458333334 18.297526041666664  6.309244791666667 18.94921875  7.440755208333333 19.436197916666664  C 8.572265625 19.923177083333336  9.758680555555555 20.166666666666664  11 20.166666666666664  C 12.241319444444446 20.166666666666664  13.427734375 19.923177083333336  14.559244791666666 19.436197916666664  C 15.690755208333334 18.94921875  16.664713541666664 18.297526041666664  17.481119791666664 17.481119791666664  C 18.297526041666664 16.664713541666664  18.94921875 15.690755208333332  19.436197916666664 14.559244791666668  C 19.923177083333336 13.427734375  20.166666666666664 12.241319444444446  20.166666666666664 11  C 20.166666666666664 9.758680555555554  19.923177083333336 8.572265625  19.436197916666664 7.440755208333334  C 18.94921875 6.309244791666666  18.297526041666664 5.335286458333334  17.481119791666664 4.518880208333334  C 16.664713541666664 3.702473958333334  15.690755208333334 3.05078125  14.559244791666666 2.563802083333334  Z M 20.524739583333336 5.478515625  C 21.508246527777775 7.163845486111109  22 9.004340277777775  22 11  C 22 12.995659722222223  21.508246527777775 14.836154513888886  20.524739583333336 16.521484375  C 19.541232638888893 18.20681423611111  18.20681423611111 19.54123263888889  16.521484375 20.524739583333336  C 14.836154513888891 21.50824652777778  12.995659722222223 22  11 22  C 9.004340277777779 22  7.163845486111112 21.50824652777778  5.478515625 20.524739583333336  C 3.7931857638888893 19.54123263888889  2.4587673611111116 18.20681423611111  1.4752604166666667 16.521484375  C 0.49175347222222215 14.836154513888886  0 12.995659722222223  0 11  C 0 9.004340277777775  0.49175347222222215 7.163845486111109  1.4752604166666667 5.478515625  C 2.4587673611111116 3.7931857638888884  3.7931857638888893 2.458767361111109  5.478515625 1.4752604166666659  C 7.163845486111112 0.4917534722222203  9.004340277777779 0  11 0  C 12.995659722222223 0  14.836154513888891 0.4917534722222203  16.521484375 1.4752604166666659  C 18.20681423611111 2.458767361111109  19.541232638888893 3.7931857638888884  20.524739583333336 5.478515625  Z " fill-rule="nonzero" fill="#ffffff" stroke="none" transform="matrix(1 0 0 1 43 523 )" />
  </g>
</svg>