<?xml version="1.0" encoding="utf-8"?>
<svg version="1.1" xmlns:xlink="http://www.w3.org/1999/xlink" width="22px" height="22px" xmlns="http://www.w3.org/2000/svg">
  <g transform="matrix(1 0 0 1 -43 -483 )">
    <path d="M 12.451559020044545 18.489783653846153  C 12.529138827023015 18.40604967948718  12.567928730512248 18.30248397435897  12.567928730512248 18.17908653846154  L 12.567928730512248 15.667067307692308  C 12.567928730512248 15.54366987179487  12.529138827023015 15.440104166666666  12.451559020044545 15.356370192307692  C 12.373979213066075 15.272636217948719  12.282108389012622 15.23076923076923  12.175946547884188 15.23076923076923  L 9.824053452115812 15.23076923076923  C 9.71789161098738 15.23076923076923  9.626020786933928 15.272636217948719  9.548440979955457 15.356370192307692  C 9.470861172976985 15.440104166666666  9.43207126948775 15.54366987179487  9.43207126948775 15.667067307692308  L 9.43207126948775 18.17908653846154  C 9.43207126948775 18.30248397435897  9.470861172976985 18.40604967948718  9.548440979955457 18.489783653846153  C 9.626020786933928 18.573517628205128  9.71789161098738 18.615384615384617  9.824053452115812 18.615384615384617  L 12.175946547884188 18.615384615384617  C 12.282108389012622 18.615384615384617  12.373979213066075 18.573517628205128  12.451559020044545 18.489783653846153  Z M 12.414810690423161 13.45252403846154  C 12.492390497401635 13.39523237179487  12.535263548626578 13.322516025641026  12.543429844097995 13.234375  L 12.763919821826281 7.165865384615385  C 12.763919821826281 7.060096153846154  12.723088344469192 6.976362179487177  12.64142538975501 6.914663461538461  C 12.535263548626581 6.817708333333332  12.437268002969564 6.76923076923077  12.347438752783965 6.76923076923077  L 9.652561247216035 6.76923076923077  C 9.56273199703044 6.76923076923077  9.464736451373422 6.817708333333332  9.35857461024499 6.914663461538461  C 9.27691165553081 6.976362179487177  9.236080178173719 7.068910256410254  9.236080178173719 7.192307692307692  L 9.444320712694877 13.234375  C 9.444320712694877 13.322516025641026  9.485152190051968 13.39523237179487  9.566815144766148 13.45252403846154  C 9.648478099480329 13.509815705128203  9.746473645137343 13.53846153846154  9.860801781737193 13.53846153846154  L 12.126948775055679 13.53846153846154  C 12.241276911655532 13.53846153846154  12.337230883444692 13.509815705128203  12.414810690423161 13.45252403846154  Z M 11.796213808463252 0.2379807692307696  C 12.041202672605792 0.3966346153846152  12.233110616184115 0.6125801282051266  12.371937639198219 0.8858173076923088  L 21.779510022271715 19.501201923076923  C 22.065330363771345 20.056490384615383  22.057164068299926 20.611778846153847  21.755011135857462 21.16706730769231  C 21.616184112843357 21.42267628205128  21.42631774313289 21.625400641025642  21.18541202672606 21.775240384615383  C 20.94450631031923 21.925080128205128  20.68522642910171 22  20.407572383073497 22  L 1.5924276169265035 22  C 1.3147735708982926 22  1.0554936896807723 21.925080128205128  0.8145879732739422 21.775240384615383  C 0.5736822568671122 21.625400641025642  0.38381588715664444 21.42267628205128  0.24498886414253898 21.16706730769231  C -0.05716406829992577 20.611778846153847  -0.06533036377134374 20.056490384615383  0.2204899777282851 19.501201923076923  L 9.628062360801781 0.8858173076923088  C 9.766889383815888 0.6125801282051266  9.95879732739421 0.3966346153846152  10.203786191536748 0.2379807692307696  C 10.448775055679288 0.07932692307692402  10.714179658500372 0  11 0  C 11.28582034149963 0  11.551224944320712 0.07932692307692402  11.796213808463252 0.2379807692307696  Z " fill-rule="nonzero" fill="#ffffff" stroke="none" transform="matrix(1 0 0 1 43 483 )" />
  </g>
</svg>