<?xml version="1.0" encoding="utf-8"?>
<svg version="1.1" xmlns:xlink="http://www.w3.org/1999/xlink" width="22px" height="21px" xmlns="http://www.w3.org/2000/svg">
  <g transform="matrix(1 0 0 1 -43 -308 )">
    <path d="M 5.866666666666666 7.499999999999999  C 5.866666666666666 8.5859375  6.176041666666666 9.5859375  6.794791666666667 10.5  C 5.557291666666667 10.5390625  4.545138888888889 11.039062499999998  3.7583333333333333 12  L 2.222916666666667 12  C 1.5965277777777775 12  1.0694444444444446 11.841796875  0.6416666666666667 11.525390625  C 0.21388888888888885 11.208984375  0 10.74609375  0 10.136718750000002  C 0 7.378906249999998  0.47361111111111104 6  1.4208333333333334 6  C 1.4666666666666666 6  1.6328125 6.08203125  1.9192708333333333 6.24609375  C 2.205729166666667 6.41015625  2.578125 6.576171874999999  3.0364583333333335 6.744140625000001  C 3.4947916666666665 6.912109375  3.9493055555555556 6.996093749999999  4.4 6.996093749999999  C 4.9118055555555555 6.996093749999999  5.419791666666667 6.906249999999999  5.923958333333333 6.7265625  C 5.8857638888888895 7.015624999999997  5.866666666666666 7.273437499999999  5.866666666666666 7.499999999999999  Z M 19.0265625 16.751953125  C 19.053298611111114 17.146484375  19.066666666666666 17.55078125  19.066666666666666 17.96484375  C 19.066666666666666 18.90234375  18.787847222222222 19.642578125  18.230208333333334 20.185546875  C 17.67256944444445 20.728515625  16.931597222222223 21  16.007291666666667 21  L 5.992708333333334 21  C 5.068402777777778 21  4.327430555555557 20.728515625  3.769791666666667 20.185546875  C 3.212152777777778 19.642578125  2.933333333333333 18.90234375  2.933333333333333 17.96484375  C 2.933333333333333 17.55078125  2.946701388888889 17.146484375  2.9734375 16.751953125  C 3.0001736111111117 16.357421875  3.0536458333333334 15.931640625  3.1338541666666666 15.474609375  C 3.2140625 15.017578124999998  3.315277777777778 14.59375  3.4375 14.203125  C 3.5597222222222222 13.812499999999998  3.7239583333333335 13.431640624999998  3.9302083333333333 13.060546875  C 4.136458333333334 12.689453124999998  4.373263888888889 12.373046874999998  4.640625 12.111328125  C 4.907986111111112 11.849609375  5.234548611111112 11.640625  5.620312500000001 11.484375  C 6.00607638888889 11.328124999999998  6.4319444444444445 11.25  6.897916666666666 11.25  C 6.974305555555556 11.25  7.138541666666667 11.333984375  7.390625 11.501953125  C 7.642708333333333 11.669921875  7.9215277777777775 11.857421875  8.227083333333333 12.064453124999998  C 8.53263888888889 12.271484374999998  8.941319444444446 12.458984374999998  9.453125 12.626953125000002  C 9.964930555555556 12.794921875  10.480555555555556 12.87890625  11 12.87890625  C 11.519444444444446 12.87890625  12.035069444444446 12.794921875  12.546875 12.626953125000002  C 13.058680555555558 12.458984374999998  13.467361111111114 12.271484374999998  13.772916666666667 12.064453124999998  C 14.078472222222222 11.857421875  14.357291666666667 11.669921875  14.609375 11.501953125  C 14.861458333333333 11.333984375  15.025694444444445 11.25  15.102083333333333 11.25  C 15.568055555555556 11.25  15.993923611111114 11.328124999999998  16.3796875 11.484375  C 16.76545138888889 11.640625  17.09201388888889 11.849609375  17.359375 12.111328125  C 17.626736111111114 12.373046874999998  17.863541666666666 12.689453124999998  18.069791666666667 13.060546875  C 18.276041666666664 13.431640624999998  18.44027777777778 13.812499999999998  18.5625 14.203125  C 18.684722222222224 14.59375  18.7859375 15.017578124999998  18.866145833333334 15.474609375  C 18.946354166666666 15.931640625  18.99982638888889 16.357421875  19.0265625 16.751953125  Z M 6.473958333333333 0.8789062500000007  C 7.046875 1.4648437500000004  7.333333333333333 2.1718749999999982  7.333333333333333 3.000000000000001  C 7.333333333333333 3.828124999999999  7.046875 4.535156249999999  6.473958333333333 5.121093749999999  C 5.901041666666667 5.707031250000001  5.209722222222223 6  4.4 6  C 3.5902777777777786 6  2.8989583333333333 5.707031250000001  2.326041666666667 5.121093749999999  C 1.7531249999999998 4.535156249999999  1.4666666666666666 3.828124999999999  1.4666666666666666 3.000000000000001  C 1.4666666666666666 2.1718749999999982  1.7531249999999998 1.4648437500000004  2.326041666666667 0.8789062500000007  C 2.8989583333333333 0.292968750000001  3.5902777777777786 0  4.4 0  C 5.209722222222223 0  5.901041666666667 0.292968750000001  6.473958333333333 0.8789062500000007  Z M 14.110937499999999 4.318359375  C 14.970312499999999 5.197265625  15.399999999999999 6.257812499999999  15.399999999999999 7.499999999999999  C 15.399999999999999 8.742187500000002  14.970312499999999 9.802734375  14.110937499999999 10.681640625  C 13.251562499999999 11.560546875000002  12.214583333333334 12  11 12  C 9.785416666666668 12  8.748437500000001 11.560546875000002  7.8890625 10.681640625  C 7.0296875 9.802734375  6.6 8.742187500000002  6.6 7.499999999999999  C 6.6 6.257812499999999  7.0296875 5.197265625  7.8890625 4.318359375  C 8.748437500000001 3.439453124999999  9.785416666666668 3.000000000000001  11 3.000000000000001  C 12.214583333333334 3.000000000000001  13.251562499999999 3.439453124999999  14.110937499999999 4.318359375  Z M 20.579166666666666 6  C 21.526388888888892 6  22.000000000000004 7.378906249999998  22 10.136718750000002  C 22.000000000000004 10.74609375  21.78611111111111 11.208984375  21.358333333333334 11.525390625  C 20.930555555555557 11.841796875  20.403472222222224 12  19.777083333333334 12  L 18.241666666666667 12  C 17.454861111111114 11.039062499999998  16.442708333333336 10.5390625  15.205208333333333 10.5  C 15.823958333333334 9.5859375  16.133333333333333 8.5859375  16.133333333333333 7.499999999999999  C 16.133333333333333 7.273437499999999  16.11423611111111 7.015624999999997  16.076041666666665 6.7265625  C 16.580208333333335 6.906249999999999  17.088194444444447 6.996093749999999  17.6 6.996093749999999  C 18.050694444444446 6.996093749999999  18.505208333333336 6.912109375  18.963541666666664 6.744140625000001  C 19.421875 6.576171874999999  19.794270833333336 6.41015625  20.080729166666664 6.24609375  C 20.3671875 6.08203125  20.533333333333335 6  20.579166666666666 6  Z M 19.673958333333335 0.8789062500000007  C 20.246875 1.4648437500000004  20.533333333333335 2.1718749999999982  20.533333333333335 3.000000000000001  C 20.533333333333335 3.828124999999999  20.246875 4.535156249999999  19.673958333333335 5.121093749999999  C 19.101041666666667 5.707031250000001  18.40972222222222 6  17.6 6  C 16.790277777777778 6  16.098958333333336 5.707031250000001  15.526041666666666 5.121093749999999  C 14.953125 4.535156249999999  14.666666666666666 3.828124999999999  14.666666666666666 3.000000000000001  C 14.666666666666666 2.1718749999999982  14.953125 1.4648437500000004  15.526041666666666 0.8789062500000007  C 16.098958333333336 0.292968750000001  16.790277777777778 0  17.6 0  C 18.40972222222222 0  19.101041666666667 0.292968750000001  19.673958333333335 0.8789062500000007  Z " fill-rule="nonzero" fill="#ffffff" stroke="none" transform="matrix(1 0 0 1 43 308 )" />
  </g>
</svg>