<?xml version="1.0" encoding="utf-8"?>
<svg version="1.1" xmlns:xlink="http://www.w3.org/1999/xlink" width="22px" height="21px" xmlns="http://www.w3.org/2000/svg">
  <g transform="matrix(1 0 0 1 -43 -268 )">
    <path d="M 21.85390625 15.182617187499998  C 21.951302083333335 15.870768229166664  22 16.602213541666668  22 17.376953125  C 22 18.370442708333336  21.641927083333336 19.22265625  20.92578125 19.93359375  C 20.209635416666668 20.64453125  19.347395833333334 21  18.3390625 21  L 3.6609375 21  C 2.652604166666667 21  1.7903645833333335 20.64453125  1.0742187500000002 19.93359375  C 0.35807291666666674 19.22265625  0 18.370442708333336  0 17.376953125  C 0 16.602213541666668  0.04869791666666678 15.870768229166664  0.14609375000000013 15.182617187499998  C 0.24348958333333345 14.49446614583333  0.42395833333333344 13.8017578125  0.6875000000000001 13.1044921875  C 0.951041666666667 12.4072265625  1.2861979166666668 11.810221354166668  1.69296875 11.313476562500002  C 2.0997395833333337 10.816731770833332  2.63828125 10.4111328125  3.30859375 10.0966796875  C 3.9789062499999996 9.7822265625  4.749479166666667 9.625  5.620312500000001 9.625  C 7.121354166666667 10.791666666666666  8.914583333333335 11.375000000000002  11 11.375000000000002  C 13.08541666666667 11.375000000000002  14.878645833333335 10.791666666666666  16.3796875 9.625  C 17.250520833333333 9.625  18.02109375 9.7822265625  18.69140625 10.0966796875  C 19.36171875 10.4111328125  19.90026041666667 10.816731770833332  20.30703125 11.313476562500002  C 20.713802083333334 11.810221354166668  21.048958333333335 12.4072265625  21.3125 13.1044921875  C 21.57604166666667 13.8017578125  21.756510416666668 14.49446614583333  21.85390625 15.182617187499998  Z M 15.666406250000001 1.5380859375  C 16.95546875 2.5634765625  17.6 3.800781250000001  17.6 5.25  C 17.6 6.699218749999999  16.95546875 7.9365234375  15.666406250000001 8.9619140625  C 14.377343750000001 9.9873046875  12.821874999999999 10.5  11 10.5  C 9.178125 10.5  7.62265625 9.9873046875  6.33359375 8.9619140625  C 5.04453125 7.9365234375  4.4 6.699218749999999  4.4 5.25  C 4.4 3.800781250000001  5.04453125 2.5634765625  6.33359375 1.5380859375  C 7.62265625 0.5126953125  9.178125 0  11 0  C 12.821874999999999 0  14.377343750000001 0.5126953125  15.666406250000001 1.5380859375  Z " fill-rule="nonzero" fill="#ffffff" stroke="none" transform="matrix(1 0 0 1 43 268 )" />
  </g>
</svg>