<?xml version="1.0" encoding="utf-8"?>
<svg version="1.1" xmlns:xlink="http://www.w3.org/1999/xlink" width="21px" height="1px" xmlns="http://www.w3.org/2000/svg">
  <g transform="matrix(1 0 0 1 -35 -21 )">
    <path d="M 9.71900831370656 0.5  C 9.71900831370656 0.7761423587799072  10.068670165051222 1  10.5 1  C 10.931329772881135 1  11.28099168629344 0.7761423587799072  11.28099168629344 0.5  C 11.28099168629344 0.22385760148366293  10.931329772881135 0  10.5 0  C 10.068670165051222 0  9.71900831370656 0.22385760148366293  9.71900831370656 0.5  Z M 19.43801662741312 0.5  C 19.43801662741312 0.7761423587799072  19.78767847875778 1  20.21900831370656 1  C 20.650338086587695 1  21 0.7761423587799072  21 0.5  C 21 0.22385760148366293  20.650338086587695 0  20.21900831370656 0  C 19.78767847875778 0  19.43801662741312 0.22385760148366293  19.43801662741312 0.5  Z M 0 0.5  C 0 0.7761423587799072  0.34966185134466177 1  0.7809916862934405 1  C 1.2123214591745766 1  1.561983372586881 0.7761423587799072  1.561983372586881 0.5  C 1.561983372586881 0.22385760148366293  1.2123214591745766 0  0.7809916862934405 0  C 0.34966185134466177 0  0 0.22385760148366293  0 0.5  Z " fill-rule="nonzero" fill="#979c9e" stroke="none" transform="matrix(1 0 0 1 35 21 )" />
  </g>
</svg>