<?xml version="1.0" encoding="utf-8"?>
<svg version="1.1" xmlns:xlink="http://www.w3.org/1999/xlink" width="22px" height="21px" xmlns="http://www.w3.org/2000/svg">
  <defs>
    <mask fill="white" id="clip6">
      <path d="M 8.000000585209264 10.500000682744142  C 8.000000585209264 12.081543692959167  9.343146490753627 13.363636487771663  11.00000071525577 13.363636487771663  C 12.65685529738579 13.363636487771663  14.000000130046505 12.081543692959167  14.000000130046505 10.500000682744142  C 14.000000130046505 8.918458013901192  12.65685529738579 7.63636419497248  11.00000071525577 7.63636419497248  C 9.343146490753627 7.63636419497248  8.000000585209264 8.918458013901192  8.000000585209264 10.500000682744142  Z M 19.00553451908868 12.670929742766715  C 18.73724436027329 12.840529191083439  18.52676183202914 13.081311330337366  18.399998985637275 13.363636487771663  C 18.266883796304846 13.651542715862892  18.22717689759306 13.970911927614946  18.28599579923785 14.280561871119492  C 18.344814700882637 14.590211814624041  18.499462564537204 14.87594256384828  18.72999940048562 15.10090899904897  C 18.72999940048562 15.10090899904897  18.790000776377624 15.158180308696586  18.790000776377624 15.158180308696586  C 18.975953675102804 15.335483447205572  19.123470964013272 15.546035244008529  19.22411954290735 15.777795196784417  C 19.324768121801426 16.00955514956031  19.37657344889959 16.257979862737862  19.37657344889959 16.508863969666912  C 19.37657344889959 16.75974807659596  19.324768121801426 17.008171424285234  19.22411954290735 17.239931377061122  C 19.123470964013272 17.47169132983701  18.975953675102804 17.68224176115168  18.790000776377624 17.85954489966067  C 18.604254631272973 18.03704539389834  18.38367655843178 18.17785871698298  18.14088041742847 18.27393236047278  C 17.89808427642516 18.37000600396258  17.637831245512583 18.41945654346538  17.37500027634882 18.41945654346538  C 17.11216930718506 18.41945654346538  16.851914845760945 18.37000600396258  16.609118704757634 18.27393236047278  C 16.366322563754323 18.17785871698298  16.14574449091313 18.03704539389834  15.959998345808476 17.85954489966067  C 15.959998345808476 17.85954489966067  15.899999830939548 17.802272224524767  15.899999830939548 17.802272224524767  C 15.664320708348349 17.582214335664915  15.364983732970574 17.434595920358287  15.040588554061049 17.378450605151897  C 14.716193375151521 17.322305289945504  14.381616105696988 17.360207329624938  14.080000057220461 17.487271828533164  C 13.784230844670246 17.608272727361765  13.531982889261371 17.809187867958453  13.354307276739089 18.06528301955496  C 13.176631664216806 18.321378171151473  13.08128293210688 18.62147631074521  13.07999953703445 18.92863620101912  C 13.07999953703445 18.92863620101912  13.07999953703445 19.090908097826702  13.07999953703445 19.090908097826702  C 13.07999953703445 19.597230513815685  12.869284964172838 20.08281538723557  12.494212215346085 20.440839374752017  C 12.119139466519332 20.798863362268463  11.61043293440051 21  11.07999992717396 21  C 10.549566919947404 21  10.040859672572815 20.798863362268463  9.665786923746062 20.440839374752017  C 9.290714174919309 20.08281538723557  9.0799996020577 19.597230513815685  9.0799996020577 19.090908097826702  C 9.0799996020577 19.090908097826702  9.0799996020577 19.00499976786699  9.0799996020577 19.00499976786699  C 9.072257316692118 18.68905052820338  8.96511832744396 18.38263124463802  8.772510432005381 18.125577520265473  C 8.579902536566802 17.868523795892923  8.310735094199835 17.67272492654242  7.999999869953497 17.56363539538103  C 7.6983838214769715 17.436570896472805  7.363806552022438 17.398668856793375  7.0394113731129115 17.454814171999764  C 6.715016194203386 17.510959487206158  6.415678503569842 17.658577902512782  6.179999380978644 17.878635791372638  C 6.179999380978644 17.878635791372638  6.119999435598175 17.935909831996824  6.119999435598175 17.935909831996824  C 5.934253290493522 18.113410326234494  5.713676648163867 18.25422228383085  5.4708805071605555 18.35029592732065  C 5.228084366157244 18.44636957081045  4.967830977616786 18.495820110313247  4.705000008453022 18.495820110313247  C 4.442169039289259 18.495820110313247  4.181915293120917 18.44636957081045  3.939119152117606 18.35029592732065  C 3.6963230111142944 18.25422228383085  3.4757460111567546 18.113410326234494  3.2899998660521015 17.935909831996824  C 3.1040469673269215 17.758606693487835  2.956528963160687 17.548054896684878  2.85588038426661 17.31629494390899  C 2.7552318053725338 17.084534991133104  2.7034264782743658 16.83611164344383  2.703426478274366 16.58522753651478  C 2.703426478274365 16.334343429585733  2.7552318053725338 16.085918716408177  2.85588038426661 15.854158763632288  C 2.956528963160687 15.6223988108564  3.1040469673269215 15.411847014053443  3.2899998660521015 15.234543875544457  C 3.2899998660521015 15.234543875544457  3.34999981143257 15.177272565896837  3.34999981143257 15.177272565896837  C 3.5805366473809865 14.95230613069615  3.735185583919203 14.666575381471912  3.7940044855639927 14.356925437967362  C 3.8528233872087814 14.047275494462816  3.8131150579854602 13.727906282710759  3.6799998686530317 13.440000054619532  C 3.5532370222611656 13.157674897185235  3.3427552092727844 12.916892757931308  3.074465050457393 12.747293309614586  C 2.8061748916420015 12.577693861297863  2.491786543262505 12.48667916246566  2.169999991546977 12.485454103532883  C 2.169999991546977 12.485454103532883  1.9999999674883742 12.485454103532883  1.9999999674883742 12.485454103532883  C 1.46956696026182 12.485454103532883  0.9608592211488907 12.284317465801346  0.5857864723221377 11.9262934782849  C 0.2107137234953847 11.568269490768454  0 11.082685982836853  0 10.57636356684787  C 0 10.070041150858886  0.2107137234953847 9.584456960183143  0.5857864723221377 9.226432972666696  C 0.9608592211488907 8.868408985150252  1.46956696026182 8.667272347418711  1.9999999674883742 8.667272347418713  C 1.9999999674883742 8.667272347418713  2.089999885559077 8.667272347418713  2.089999885559077 8.667272347418713  C 2.4209943271114316 8.659881984115204  2.7420046475044013 8.557612948923781  3.0112990254184995 8.373759957823317  C 3.2805934033325976 8.189906966722855  3.485715670738575 7.9329744080998434  3.599999941479073 7.636363512228338  C 3.733115130811502 7.34845728413711  3.772823460034824 7.029088072385054  3.7140045583900347 6.7194381288805065  C 3.6551856567452456 6.409788185375959  3.500536720207028 6.124056753407577  3.2699998842586124 5.899090318206889  C 3.2699998842586124 5.899090318206889  3.2099999388781435 5.8418176430709865  3.2099999388781435 5.8418176430709865  C 3.024047040152964 5.664514504561998  2.8765290359867284 5.453964073247328  2.7758804570926516 5.22220412047144  C 2.675231878198575 4.990444167695552  2.623426551100408 4.742020478634204  2.623426551100408 4.491136371705158  C 2.623426551100408 4.240252264776112  2.675231878198575 3.9918282343426936  2.7758804570926516 3.760068281566806  C 2.8765290359867284 3.528308328790917  3.024047040152964 3.3177575561041746  3.2099999388781435 3.140454417595188  C 3.3957460839827966 2.9629539233575155  3.616323083940336 2.822141283017019  3.8591192249436475 2.7260676395272188  C 4.101915365946959 2.6299939960374177  4.362169112115301 2.580543456534622  4.625000081279064 2.580543456534622  C 4.887831050442828 2.580543456534622  5.148084438983286 2.6299939960374177  5.3908805799865975 2.7260676395272188  C 5.63367672098991 2.822141283017019  5.854253363319565 2.9629539233575155  6.039999508424217 3.140454417595188  C 6.039999508424217 3.140454417595188  6.099999453804686 3.1977270927310895  6.099999453804686 3.1977270927310895  C 6.3356785763958845 3.4177849815909425  6.63501555177366 3.565404421013785  6.959410730683185 3.621549736220175  C 7.2838059095927115 3.6776950514265647  7.6183838943030135 3.639791646258848  7.919999942779539 3.512727147350621  C 7.919999942779539 3.512727147350621  7.999999869953497 3.512727147350621  7.999999869953497 3.512727147350621  C 8.295769082503712 3.3917262485220214  8.548017037912587 3.1908117906694753  8.725692650434869 2.934716639072966  C 8.903368262957152 2.6786214874764567  8.99871627981131 2.378523518568755  8.999999674883743 2.0713636282948418  C 8.999999674883743 2.0713636282948418  8.999999674883743 1.9090908780570846  8.999999674883743 1.9090908780570846  C 8.999999674883743 1.402768462068101  9.21071424774535 0.9171838020057592  9.585786996572104 0.5591598144893132  C 9.960859745398857 0.20113582697286725  10.469566992773446 0  11 0  C 11.530433007226554 0  12.039139539345374 0.20113582697286725  12.414212288172129 0.5591598144893132  C 12.78928503699888 0.9171838020057592  12.99999960986049 1.402768462068101  12.99999960986049 1.9090908780570846  C 12.99999960986049 1.9090908780570846  12.99999960986049 1.9949998907609374  12.99999960986049 1.9949998907609374  C 13.001283004932922 2.3021597810348506  13.096631737042848 2.602258262000659  13.274307349565131 2.858353413597168  C 13.451982962087413 3.1144485651936775  13.704230917496288 3.3153626816741526  14.000000130046505 3.436363580502752  C 14.301616178523028 3.563428079410979  14.636193447977561 3.6013314845786955  14.96058862688709 3.545186169372306  C 15.284983805796617 3.4890408541659164  15.584320781174393 3.341421414743073  15.819999903765588 3.1213635258832206  C 15.819999903765588 3.1213635258832206  15.87999841863452 3.064090850747319  15.87999841863452 3.064090850747319  C 16.065744563739173 2.8865903565096467  16.286322636580365 2.7457777161691497  16.529118777583676 2.6497040726793495  C 16.771914918586987 2.553630429189549  17.0321693800111 2.5041798896867533  17.295000349174863 2.5041798896867533  C 17.557831318338625 2.504179889686753  17.8180843492512 2.553630429189549  18.06088049025451 2.6497040726793495  C 18.303676631257822 2.7457777161691497  18.52425327358748 2.8865903565096467  18.70999941869213 3.064090850747319  C 18.89595231741731 3.2413939892563053  19.043471036839314 3.4519447619430483  19.14411961573339 3.6837047147189366  C 19.24476819462747 3.9154646674948244  19.296573521725634 4.163888697928242  19.296573521725634 4.4147728048572885  C 19.296573521725634 4.665656911786336  19.24476819462747 4.914080600847682  19.14411961573339 5.145840553623571  C 19.043471036839314 5.377600506399458  18.89595231741731 5.588150937714129  18.70999941869213 5.765454076223117  C 18.70999941869213 5.765454076223117  18.649999473311663 5.822726751359018  18.649999473311663 5.822726751359018  C 18.419462637363246 6.047693186559706  18.26481477370868 6.333423935783946  18.20599587206389 6.643073879288494  C 18.147176970419103 6.9527238227930415  18.186883869130888 7.27209371728924  18.319999058463317 7.559999945380468  C 18.319999058463317 7.559999945380468  18.319999058463317 7.636363512228338  18.319999058463317 7.636363512228338  C 18.446761904855183 7.918688669662635  18.657244433099333 8.159470808916561  18.925534591914722 8.329070257233283  C 19.193824750730112 8.498669705550007  19.508213277923552 8.589683721638067  19.829999829639082 8.590908780570844  C 19.829999829639082 8.590908780570844  19.999998959627973 8.590908780570844  19.999998959627973 8.590908780570844  C 20.53043196685453 8.590908780570844  21.039139929484886 8.792045418302381  21.41421267831164 9.150069405818828  C 21.789285427138392 9.508093393335274  22 9.993677584011017  22 10.5  C 22 11.006322415988983  21.789285427138392 11.491905923920585  21.41421267831164 11.849929911437032  C 21.039139929484886 12.207953898953479  20.53043196685453 12.409090536685014  19.999998959627973 12.409090536685014  C 19.999998959627973 12.409090536685014  19.90999975681304 12.409090536685014  19.90999975681304 12.409090536685014  C 19.58821320509751 12.410315595617789  19.27382467790407 12.501330294449993  19.00553451908868 12.670929742766715  Z " fill-rule="evenodd" />
    </mask>
  </defs>
  <g transform="matrix(1 0 0 1 -43 -348 )">
    <path d="M 8.000000585209264 10.500000682744142  C 8.000000585209264 12.081543692959167  9.343146490753627 13.363636487771663  11.00000071525577 13.363636487771663  C 12.65685529738579 13.363636487771663  14.000000130046505 12.081543692959167  14.000000130046505 10.500000682744142  C 14.000000130046505 8.918458013901192  12.65685529738579 7.63636419497248  11.00000071525577 7.63636419497248  C 9.343146490753627 7.63636419497248  8.000000585209264 8.918458013901192  8.000000585209264 10.500000682744142  Z M 19.00553451908868 12.670929742766715  C 18.73724436027329 12.840529191083439  18.52676183202914 13.081311330337366  18.399998985637275 13.363636487771663  C 18.266883796304846 13.651542715862892  18.22717689759306 13.970911927614946  18.28599579923785 14.280561871119492  C 18.344814700882637 14.590211814624041  18.499462564537204 14.87594256384828  18.72999940048562 15.10090899904897  C 18.72999940048562 15.10090899904897  18.790000776377624 15.158180308696586  18.790000776377624 15.158180308696586  C 18.975953675102804 15.335483447205572  19.123470964013272 15.546035244008529  19.22411954290735 15.777795196784417  C 19.324768121801426 16.00955514956031  19.37657344889959 16.257979862737862  19.37657344889959 16.508863969666912  C 19.37657344889959 16.75974807659596  19.324768121801426 17.008171424285234  19.22411954290735 17.239931377061122  C 19.123470964013272 17.47169132983701  18.975953675102804 17.68224176115168  18.790000776377624 17.85954489966067  C 18.604254631272973 18.03704539389834  18.38367655843178 18.17785871698298  18.14088041742847 18.27393236047278  C 17.89808427642516 18.37000600396258  17.637831245512583 18.41945654346538  17.37500027634882 18.41945654346538  C 17.11216930718506 18.41945654346538  16.851914845760945 18.37000600396258  16.609118704757634 18.27393236047278  C 16.366322563754323 18.17785871698298  16.14574449091313 18.03704539389834  15.959998345808476 17.85954489966067  C 15.959998345808476 17.85954489966067  15.899999830939548 17.802272224524767  15.899999830939548 17.802272224524767  C 15.664320708348349 17.582214335664915  15.364983732970574 17.434595920358287  15.040588554061049 17.378450605151897  C 14.716193375151521 17.322305289945504  14.381616105696988 17.360207329624938  14.080000057220461 17.487271828533164  C 13.784230844670246 17.608272727361765  13.531982889261371 17.809187867958453  13.354307276739089 18.06528301955496  C 13.176631664216806 18.321378171151473  13.08128293210688 18.62147631074521  13.07999953703445 18.92863620101912  C 13.07999953703445 18.92863620101912  13.07999953703445 19.090908097826702  13.07999953703445 19.090908097826702  C 13.07999953703445 19.597230513815685  12.869284964172838 20.08281538723557  12.494212215346085 20.440839374752017  C 12.119139466519332 20.798863362268463  11.61043293440051 21  11.07999992717396 21  C 10.549566919947404 21  10.040859672572815 20.798863362268463  9.665786923746062 20.440839374752017  C 9.290714174919309 20.08281538723557  9.0799996020577 19.597230513815685  9.0799996020577 19.090908097826702  C 9.0799996020577 19.090908097826702  9.0799996020577 19.00499976786699  9.0799996020577 19.00499976786699  C 9.072257316692118 18.68905052820338  8.96511832744396 18.38263124463802  8.772510432005381 18.125577520265473  C 8.579902536566802 17.868523795892923  8.310735094199835 17.67272492654242  7.999999869953497 17.56363539538103  C 7.6983838214769715 17.436570896472805  7.363806552022438 17.398668856793375  7.0394113731129115 17.454814171999764  C 6.715016194203386 17.510959487206158  6.415678503569842 17.658577902512782  6.179999380978644 17.878635791372638  C 6.179999380978644 17.878635791372638  6.119999435598175 17.935909831996824  6.119999435598175 17.935909831996824  C 5.934253290493522 18.113410326234494  5.713676648163867 18.25422228383085  5.4708805071605555 18.35029592732065  C 5.228084366157244 18.44636957081045  4.967830977616786 18.495820110313247  4.705000008453022 18.495820110313247  C 4.442169039289259 18.495820110313247  4.181915293120917 18.44636957081045  3.939119152117606 18.35029592732065  C 3.6963230111142944 18.25422228383085  3.4757460111567546 18.113410326234494  3.2899998660521015 17.935909831996824  C 3.1040469673269215 17.758606693487835  2.956528963160687 17.548054896684878  2.85588038426661 17.31629494390899  C 2.7552318053725338 17.084534991133104  2.7034264782743658 16.83611164344383  2.703426478274366 16.58522753651478  C 2.703426478274365 16.334343429585733  2.7552318053725338 16.085918716408177  2.85588038426661 15.854158763632288  C 2.956528963160687 15.6223988108564  3.1040469673269215 15.411847014053443  3.2899998660521015 15.234543875544457  C 3.2899998660521015 15.234543875544457  3.34999981143257 15.177272565896837  3.34999981143257 15.177272565896837  C 3.5805366473809865 14.95230613069615  3.735185583919203 14.666575381471912  3.7940044855639927 14.356925437967362  C 3.8528233872087814 14.047275494462816  3.8131150579854602 13.727906282710759  3.6799998686530317 13.440000054619532  C 3.5532370222611656 13.157674897185235  3.3427552092727844 12.916892757931308  3.074465050457393 12.747293309614586  C 2.8061748916420015 12.577693861297863  2.491786543262505 12.48667916246566  2.169999991546977 12.485454103532883  C 2.169999991546977 12.485454103532883  1.9999999674883742 12.485454103532883  1.9999999674883742 12.485454103532883  C 1.46956696026182 12.485454103532883  0.9608592211488907 12.284317465801346  0.5857864723221377 11.9262934782849  C 0.2107137234953847 11.568269490768454  0 11.082685982836853  0 10.57636356684787  C 0 10.070041150858886  0.2107137234953847 9.584456960183143  0.5857864723221377 9.226432972666696  C 0.9608592211488907 8.868408985150252  1.46956696026182 8.667272347418711  1.9999999674883742 8.667272347418713  C 1.9999999674883742 8.667272347418713  2.089999885559077 8.667272347418713  2.089999885559077 8.667272347418713  C 2.4209943271114316 8.659881984115204  2.7420046475044013 8.557612948923781  3.0112990254184995 8.373759957823317  C 3.2805934033325976 8.189906966722855  3.485715670738575 7.9329744080998434  3.599999941479073 7.636363512228338  C 3.733115130811502 7.34845728413711  3.772823460034824 7.029088072385054  3.7140045583900347 6.7194381288805065  C 3.6551856567452456 6.409788185375959  3.500536720207028 6.124056753407577  3.2699998842586124 5.899090318206889  C 3.2699998842586124 5.899090318206889  3.2099999388781435 5.8418176430709865  3.2099999388781435 5.8418176430709865  C 3.024047040152964 5.664514504561998  2.8765290359867284 5.453964073247328  2.7758804570926516 5.22220412047144  C 2.675231878198575 4.990444167695552  2.623426551100408 4.742020478634204  2.623426551100408 4.491136371705158  C 2.623426551100408 4.240252264776112  2.675231878198575 3.9918282343426936  2.7758804570926516 3.760068281566806  C 2.8765290359867284 3.528308328790917  3.024047040152964 3.3177575561041746  3.2099999388781435 3.140454417595188  C 3.3957460839827966 2.9629539233575155  3.616323083940336 2.822141283017019  3.8591192249436475 2.7260676395272188  C 4.101915365946959 2.6299939960374177  4.362169112115301 2.580543456534622  4.625000081279064 2.580543456534622  C 4.887831050442828 2.580543456534622  5.148084438983286 2.6299939960374177  5.3908805799865975 2.7260676395272188  C 5.63367672098991 2.822141283017019  5.854253363319565 2.9629539233575155  6.039999508424217 3.140454417595188  C 6.039999508424217 3.140454417595188  6.099999453804686 3.1977270927310895  6.099999453804686 3.1977270927310895  C 6.3356785763958845 3.4177849815909425  6.63501555177366 3.565404421013785  6.959410730683185 3.621549736220175  C 7.2838059095927115 3.6776950514265647  7.6183838943030135 3.639791646258848  7.919999942779539 3.512727147350621  C 7.919999942779539 3.512727147350621  7.999999869953497 3.512727147350621  7.999999869953497 3.512727147350621  C 8.295769082503712 3.3917262485220214  8.548017037912587 3.1908117906694753  8.725692650434869 2.934716639072966  C 8.903368262957152 2.6786214874764567  8.99871627981131 2.378523518568755  8.999999674883743 2.0713636282948418  C 8.999999674883743 2.0713636282948418  8.999999674883743 1.9090908780570846  8.999999674883743 1.9090908780570846  C 8.999999674883743 1.402768462068101  9.21071424774535 0.9171838020057592  9.585786996572104 0.5591598144893132  C 9.960859745398857 0.20113582697286725  10.469566992773446 0  11 0  C 11.530433007226554 0  12.039139539345374 0.20113582697286725  12.414212288172129 0.5591598144893132  C 12.78928503699888 0.9171838020057592  12.99999960986049 1.402768462068101  12.99999960986049 1.9090908780570846  C 12.99999960986049 1.9090908780570846  12.99999960986049 1.9949998907609374  12.99999960986049 1.9949998907609374  C 13.001283004932922 2.3021597810348506  13.096631737042848 2.602258262000659  13.274307349565131 2.858353413597168  C 13.451982962087413 3.1144485651936775  13.704230917496288 3.3153626816741526  14.000000130046505 3.436363580502752  C 14.301616178523028 3.563428079410979  14.636193447977561 3.6013314845786955  14.96058862688709 3.545186169372306  C 15.284983805796617 3.4890408541659164  15.584320781174393 3.341421414743073  15.819999903765588 3.1213635258832206  C 15.819999903765588 3.1213635258832206  15.87999841863452 3.064090850747319  15.87999841863452 3.064090850747319  C 16.065744563739173 2.8865903565096467  16.286322636580365 2.7457777161691497  16.529118777583676 2.6497040726793495  C 16.771914918586987 2.553630429189549  17.0321693800111 2.5041798896867533  17.295000349174863 2.5041798896867533  C 17.557831318338625 2.504179889686753  17.8180843492512 2.553630429189549  18.06088049025451 2.6497040726793495  C 18.303676631257822 2.7457777161691497  18.52425327358748 2.8865903565096467  18.70999941869213 3.064090850747319  C 18.89595231741731 3.2413939892563053  19.043471036839314 3.4519447619430483  19.14411961573339 3.6837047147189366  C 19.24476819462747 3.9154646674948244  19.296573521725634 4.163888697928242  19.296573521725634 4.4147728048572885  C 19.296573521725634 4.665656911786336  19.24476819462747 4.914080600847682  19.14411961573339 5.145840553623571  C 19.043471036839314 5.377600506399458  18.89595231741731 5.588150937714129  18.70999941869213 5.765454076223117  C 18.70999941869213 5.765454076223117  18.649999473311663 5.822726751359018  18.649999473311663 5.822726751359018  C 18.419462637363246 6.047693186559706  18.26481477370868 6.333423935783946  18.20599587206389 6.643073879288494  C 18.147176970419103 6.9527238227930415  18.186883869130888 7.27209371728924  18.319999058463317 7.559999945380468  C 18.319999058463317 7.559999945380468  18.319999058463317 7.636363512228338  18.319999058463317 7.636363512228338  C 18.446761904855183 7.918688669662635  18.657244433099333 8.159470808916561  18.925534591914722 8.329070257233283  C 19.193824750730112 8.498669705550007  19.508213277923552 8.589683721638067  19.829999829639082 8.590908780570844  C 19.829999829639082 8.590908780570844  19.999998959627973 8.590908780570844  19.999998959627973 8.590908780570844  C 20.53043196685453 8.590908780570844  21.039139929484886 8.792045418302381  21.41421267831164 9.150069405818828  C 21.789285427138392 9.508093393335274  22 9.993677584011017  22 10.5  C 22 11.006322415988983  21.789285427138392 11.491905923920585  21.41421267831164 11.849929911437032  C 21.039139929484886 12.207953898953479  20.53043196685453 12.409090536685014  19.999998959627973 12.409090536685014  C 19.999998959627973 12.409090536685014  19.90999975681304 12.409090536685014  19.90999975681304 12.409090536685014  C 19.58821320509751 12.410315595617789  19.27382467790407 12.501330294449993  19.00553451908868 12.670929742766715  Z " fill-rule="nonzero" fill="#ffffff" stroke="none" fill-opacity="0" transform="matrix(1 0 0 1 43 348 )" />
    <path d="M 8.000000585209264 10.500000682744142  C 8.000000585209264 12.081543692959167  9.343146490753627 13.363636487771663  11.00000071525577 13.363636487771663  C 12.65685529738579 13.363636487771663  14.000000130046505 12.081543692959167  14.000000130046505 10.500000682744142  C 14.000000130046505 8.918458013901192  12.65685529738579 7.63636419497248  11.00000071525577 7.63636419497248  C 9.343146490753627 7.63636419497248  8.000000585209264 8.918458013901192  8.000000585209264 10.500000682744142  Z " stroke-width="3" stroke="#ffffff" fill="none" transform="matrix(1 0 0 1 43 348 )" mask="url(#clip6)" />
    <path d="M 19.00553451908868 12.670929742766715  C 18.73724436027329 12.840529191083439  18.52676183202914 13.081311330337366  18.399998985637275 13.363636487771663  C 18.266883796304846 13.651542715862892  18.22717689759306 13.970911927614946  18.28599579923785 14.280561871119492  C 18.344814700882637 14.590211814624041  18.499462564537204 14.87594256384828  18.72999940048562 15.10090899904897  C 18.72999940048562 15.10090899904897  18.790000776377624 15.158180308696586  18.790000776377624 15.158180308696586  C 18.975953675102804 15.335483447205572  19.123470964013272 15.546035244008529  19.22411954290735 15.777795196784417  C 19.324768121801426 16.00955514956031  19.37657344889959 16.257979862737862  19.37657344889959 16.508863969666912  C 19.37657344889959 16.75974807659596  19.324768121801426 17.008171424285234  19.22411954290735 17.239931377061122  C 19.123470964013272 17.47169132983701  18.975953675102804 17.68224176115168  18.790000776377624 17.85954489966067  C 18.604254631272973 18.03704539389834  18.38367655843178 18.17785871698298  18.14088041742847 18.27393236047278  C 17.89808427642516 18.37000600396258  17.637831245512583 18.41945654346538  17.37500027634882 18.41945654346538  C 17.11216930718506 18.41945654346538  16.851914845760945 18.37000600396258  16.609118704757634 18.27393236047278  C 16.366322563754323 18.17785871698298  16.14574449091313 18.03704539389834  15.959998345808476 17.85954489966067  C 15.959998345808476 17.85954489966067  15.899999830939548 17.802272224524767  15.899999830939548 17.802272224524767  C 15.664320708348349 17.582214335664915  15.364983732970574 17.434595920358287  15.040588554061049 17.378450605151897  C 14.716193375151521 17.322305289945504  14.381616105696988 17.360207329624938  14.080000057220461 17.487271828533164  C 13.784230844670246 17.608272727361765  13.531982889261371 17.809187867958453  13.354307276739089 18.06528301955496  C 13.176631664216806 18.321378171151473  13.08128293210688 18.62147631074521  13.07999953703445 18.92863620101912  C 13.07999953703445 18.92863620101912  13.07999953703445 19.090908097826702  13.07999953703445 19.090908097826702  C 13.07999953703445 19.597230513815685  12.869284964172838 20.08281538723557  12.494212215346085 20.440839374752017  C 12.119139466519332 20.798863362268463  11.61043293440051 21  11.07999992717396 21  C 10.549566919947404 21  10.040859672572815 20.798863362268463  9.665786923746062 20.440839374752017  C 9.290714174919309 20.08281538723557  9.0799996020577 19.597230513815685  9.0799996020577 19.090908097826702  C 9.0799996020577 19.090908097826702  9.0799996020577 19.00499976786699  9.0799996020577 19.00499976786699  C 9.072257316692118 18.68905052820338  8.96511832744396 18.38263124463802  8.772510432005381 18.125577520265473  C 8.579902536566802 17.868523795892923  8.310735094199835 17.67272492654242  7.999999869953497 17.56363539538103  C 7.6983838214769715 17.436570896472805  7.363806552022438 17.398668856793375  7.0394113731129115 17.454814171999764  C 6.715016194203386 17.510959487206158  6.415678503569842 17.658577902512782  6.179999380978644 17.878635791372638  C 6.179999380978644 17.878635791372638  6.119999435598175 17.935909831996824  6.119999435598175 17.935909831996824  C 5.934253290493522 18.113410326234494  5.713676648163867 18.25422228383085  5.4708805071605555 18.35029592732065  C 5.228084366157244 18.44636957081045  4.967830977616786 18.495820110313247  4.705000008453022 18.495820110313247  C 4.442169039289259 18.495820110313247  4.181915293120917 18.44636957081045  3.939119152117606 18.35029592732065  C 3.6963230111142944 18.25422228383085  3.4757460111567546 18.113410326234494  3.2899998660521015 17.935909831996824  C 3.1040469673269215 17.758606693487835  2.956528963160687 17.548054896684878  2.85588038426661 17.31629494390899  C 2.7552318053725338 17.084534991133104  2.7034264782743658 16.83611164344383  2.703426478274366 16.58522753651478  C 2.703426478274365 16.334343429585733  2.7552318053725338 16.085918716408177  2.85588038426661 15.854158763632288  C 2.956528963160687 15.6223988108564  3.1040469673269215 15.411847014053443  3.2899998660521015 15.234543875544457  C 3.2899998660521015 15.234543875544457  3.34999981143257 15.177272565896837  3.34999981143257 15.177272565896837  C 3.5805366473809865 14.95230613069615  3.735185583919203 14.666575381471912  3.7940044855639927 14.356925437967362  C 3.8528233872087814 14.047275494462816  3.8131150579854602 13.727906282710759  3.6799998686530317 13.440000054619532  C 3.5532370222611656 13.157674897185235  3.3427552092727844 12.916892757931308  3.074465050457393 12.747293309614586  C 2.8061748916420015 12.577693861297863  2.491786543262505 12.48667916246566  2.169999991546977 12.485454103532883  C 2.169999991546977 12.485454103532883  1.9999999674883742 12.485454103532883  1.9999999674883742 12.485454103532883  C 1.46956696026182 12.485454103532883  0.9608592211488907 12.284317465801346  0.5857864723221377 11.9262934782849  C 0.2107137234953847 11.568269490768454  0 11.082685982836853  0 10.57636356684787  C 0 10.070041150858886  0.2107137234953847 9.584456960183143  0.5857864723221377 9.226432972666696  C 0.9608592211488907 8.868408985150252  1.46956696026182 8.667272347418711  1.9999999674883742 8.667272347418713  C 1.9999999674883742 8.667272347418713  2.089999885559077 8.667272347418713  2.089999885559077 8.667272347418713  C 2.4209943271114316 8.659881984115204  2.7420046475044013 8.557612948923781  3.0112990254184995 8.373759957823317  C 3.2805934033325976 8.189906966722855  3.485715670738575 7.9329744080998434  3.599999941479073 7.636363512228338  C 3.733115130811502 7.34845728413711  3.772823460034824 7.029088072385054  3.7140045583900347 6.7194381288805065  C 3.6551856567452456 6.409788185375959  3.500536720207028 6.124056753407577  3.2699998842586124 5.899090318206889  C 3.2699998842586124 5.899090318206889  3.2099999388781435 5.8418176430709865  3.2099999388781435 5.8418176430709865  C 3.024047040152964 5.664514504561998  2.8765290359867284 5.453964073247328  2.7758804570926516 5.22220412047144  C 2.675231878198575 4.990444167695552  2.623426551100408 4.742020478634204  2.623426551100408 4.491136371705158  C 2.623426551100408 4.240252264776112  2.675231878198575 3.9918282343426936  2.7758804570926516 3.760068281566806  C 2.8765290359867284 3.528308328790917  3.024047040152964 3.3177575561041746  3.2099999388781435 3.140454417595188  C 3.3957460839827966 2.9629539233575155  3.616323083940336 2.822141283017019  3.8591192249436475 2.7260676395272188  C 4.101915365946959 2.6299939960374177  4.362169112115301 2.580543456534622  4.625000081279064 2.580543456534622  C 4.887831050442828 2.580543456534622  5.148084438983286 2.6299939960374177  5.3908805799865975 2.7260676395272188  C 5.63367672098991 2.822141283017019  5.854253363319565 2.9629539233575155  6.039999508424217 3.140454417595188  C 6.039999508424217 3.140454417595188  6.099999453804686 3.1977270927310895  6.099999453804686 3.1977270927310895  C 6.3356785763958845 3.4177849815909425  6.63501555177366 3.565404421013785  6.959410730683185 3.621549736220175  C 7.2838059095927115 3.6776950514265647  7.6183838943030135 3.639791646258848  7.919999942779539 3.512727147350621  C 7.919999942779539 3.512727147350621  7.999999869953497 3.512727147350621  7.999999869953497 3.512727147350621  C 8.295769082503712 3.3917262485220214  8.548017037912587 3.1908117906694753  8.725692650434869 2.934716639072966  C 8.903368262957152 2.6786214874764567  8.99871627981131 2.378523518568755  8.999999674883743 2.0713636282948418  C 8.999999674883743 2.0713636282948418  8.999999674883743 1.9090908780570846  8.999999674883743 1.9090908780570846  C 8.999999674883743 1.402768462068101  9.21071424774535 0.9171838020057592  9.585786996572104 0.5591598144893132  C 9.960859745398857 0.20113582697286725  10.469566992773446 0  11 0  C 11.530433007226554 0  12.039139539345374 0.20113582697286725  12.414212288172129 0.5591598144893132  C 12.78928503699888 0.9171838020057592  12.99999960986049 1.402768462068101  12.99999960986049 1.9090908780570846  C 12.99999960986049 1.9090908780570846  12.99999960986049 1.9949998907609374  12.99999960986049 1.9949998907609374  C 13.001283004932922 2.3021597810348506  13.096631737042848 2.602258262000659  13.274307349565131 2.858353413597168  C 13.451982962087413 3.1144485651936775  13.704230917496288 3.3153626816741526  14.000000130046505 3.436363580502752  C 14.301616178523028 3.563428079410979  14.636193447977561 3.6013314845786955  14.96058862688709 3.545186169372306  C 15.284983805796617 3.4890408541659164  15.584320781174393 3.341421414743073  15.819999903765588 3.1213635258832206  C 15.819999903765588 3.1213635258832206  15.87999841863452 3.064090850747319  15.87999841863452 3.064090850747319  C 16.065744563739173 2.8865903565096467  16.286322636580365 2.7457777161691497  16.529118777583676 2.6497040726793495  C 16.771914918586987 2.553630429189549  17.0321693800111 2.5041798896867533  17.295000349174863 2.5041798896867533  C 17.557831318338625 2.504179889686753  17.8180843492512 2.553630429189549  18.06088049025451 2.6497040726793495  C 18.303676631257822 2.7457777161691497  18.52425327358748 2.8865903565096467  18.70999941869213 3.064090850747319  C 18.89595231741731 3.2413939892563053  19.043471036839314 3.4519447619430483  19.14411961573339 3.6837047147189366  C 19.24476819462747 3.9154646674948244  19.296573521725634 4.163888697928242  19.296573521725634 4.4147728048572885  C 19.296573521725634 4.665656911786336  19.24476819462747 4.914080600847682  19.14411961573339 5.145840553623571  C 19.043471036839314 5.377600506399458  18.89595231741731 5.588150937714129  18.70999941869213 5.765454076223117  C 18.70999941869213 5.765454076223117  18.649999473311663 5.822726751359018  18.649999473311663 5.822726751359018  C 18.419462637363246 6.047693186559706  18.26481477370868 6.333423935783946  18.20599587206389 6.643073879288494  C 18.147176970419103 6.9527238227930415  18.186883869130888 7.27209371728924  18.319999058463317 7.559999945380468  C 18.319999058463317 7.559999945380468  18.319999058463317 7.636363512228338  18.319999058463317 7.636363512228338  C 18.446761904855183 7.918688669662635  18.657244433099333 8.159470808916561  18.925534591914722 8.329070257233283  C 19.193824750730112 8.498669705550007  19.508213277923552 8.589683721638067  19.829999829639082 8.590908780570844  C 19.829999829639082 8.590908780570844  19.999998959627973 8.590908780570844  19.999998959627973 8.590908780570844  C 20.53043196685453 8.590908780570844  21.039139929484886 8.792045418302381  21.41421267831164 9.150069405818828  C 21.789285427138392 9.508093393335274  22 9.993677584011017  22 10.5  C 22 11.006322415988983  21.789285427138392 11.491905923920585  21.41421267831164 11.849929911437032  C 21.039139929484886 12.207953898953479  20.53043196685453 12.409090536685014  19.999998959627973 12.409090536685014  C 19.999998959627973 12.409090536685014  19.90999975681304 12.409090536685014  19.90999975681304 12.409090536685014  C 19.58821320509751 12.410315595617789  19.27382467790407 12.501330294449993  19.00553451908868 12.670929742766715  Z " stroke-width="3" stroke="#ffffff" fill="none" transform="matrix(1 0 0 1 43 348 )" mask="url(#clip6)" />
  </g>
</svg>