<?xml version="1.0" encoding="utf-8"?>
<svg version="1.1" xmlns:xlink="http://www.w3.org/1999/xlink" width="24px" height="20px" xmlns="http://www.w3.org/2000/svg">
  <g transform="matrix(1 0 0 1 -310 -5 )">
    <path d="M 11.431640625 8.53515625  C 10.552734375 9.51171875  9.4921875 10  8.25 10  C 7.0078125 10  5.947265625 9.51171875  5.068359375 8.53515625  C 4.189453125 7.55859375  3.75 6.380208333333332  3.75 5  C 3.75 3.6197916666666674  4.189453125 2.44140625  5.068359375 1.46484375  C 5.947265625 0.48828125  7.0078125 0  8.25 0  C 9.4921875 0  10.552734375 0.48828125  11.431640625 1.46484375  C 12.310546875 2.44140625  12.75 3.6197916666666674  12.75 5  C 12.75 6.380208333333332  12.310546875 7.55859375  11.431640625 8.53515625  Z M 19.5 7.083333333333332  L 19.5 11.666666666666664  L 23.625 11.666666666666664  C 23.7265625 11.666666666666664  23.814453125 11.707899305555554  23.888671875 11.790364583333336  C 23.962890625 11.87282986111111  24 11.97048611111111  24 12.083333333333336  L 24 14.583333333333336  C 24 14.696180555555554  23.962890625 14.793836805555554  23.888671875 14.876302083333336  C 23.814453125 14.95876736111111  23.7265625 15  23.625 15  L 19.5 15  L 19.5 19.583333333333332  C 19.5 19.696180555555557  19.462890625 19.793836805555557  19.388671875 19.876302083333332  C 19.314453125 19.95876736111111  19.2265625 20  19.125 20  L 16.875 20  C 16.7734375 20  16.685546875 19.95876736111111  16.611328125 19.876302083333332  C 16.537109375 19.793836805555557  16.5 19.696180555555557  16.5 19.583333333333332  L 16.5 15  L 12.375 15  C 12.273437500000002 15  12.185546875000002 14.95876736111111  12.111328125 14.876302083333336  C 12.037109375 14.793836805555554  12 14.696180555555554  12 14.583333333333336  L 12 12.083333333333336  C 12 11.97048611111111  12.037109375 11.87282986111111  12.111328125 11.790364583333336  C 12.185546875000002 11.707899305555554  12.273437500000002 11.666666666666664  12.375 11.666666666666664  L 16.5 11.666666666666664  L 16.5 7.083333333333332  C 16.5 6.970486111111109  16.537109375 6.872829861111109  16.611328125 6.790364583333332  C 16.685546875 6.707899305555555  16.7734375 6.666666666666668  16.875 6.666666666666668  L 19.125 6.666666666666668  C 19.2265625 6.666666666666668  19.314453125 6.707899305555555  19.388671875 6.790364583333332  C 19.462890625 6.872829861111109  19.5 6.970486111111109  19.5 7.083333333333332  Z M 10.875 12.083333333333336  L 10.875 14.583333333333336  C 10.875 15.034722222222223  11.0234375 15.425347222222223  11.3203125 15.755208333333332  C 11.6171875 16.085069444444443  11.96875 16.25  12.375 16.25  L 15.375 16.25  L 15.375 19.348958333333332  C 14.84375 19.78298611111111  14.17578125 20  13.37109375 20  L 3.12890625 20  C 2.18359375 20  1.42578125 19.700520833333332  0.85546875 19.1015625  C 0.28515625 18.502604166666668  0 17.67795138888889  0 16.627604166666668  C 0 16.16753472222222  0.013671874999999998 15.718315972222223  0.041015625 15.279947916666668  C 0.068359375 14.84157986111111  0.123046875 14.368489583333336  0.205078125 13.860677083333336  C 0.287109375 13.352864583333336  0.390625 12.881944444444443  0.515625 12.447916666666664  C 0.640625 12.01388888888889  0.80859375 11.590711805555554  1.01953125 11.178385416666664  C 1.2304687500000002 10.766059027777777  1.4726562500000002 10.414496527777777  1.74609375 10.123697916666664  C 2.01953125 9.832899305555555  2.353515625 9.600694444444445  2.748046875 9.427083333333332  C 3.142578125 9.253472222222221  3.5781250000000004 9.166666666666668  4.0546875 9.166666666666668  C 4.203125 9.166666666666668  4.35546875 9.24045138888889  4.51171875 9.388020833333332  C 5.12890625 9.917534722222221  5.732421875 10.31467013888889  6.322265625 10.579427083333336  C 6.912109375 10.844184027777777  7.554687500000001 10.9765625  8.25 10.9765625  C 8.9453125 10.9765625  9.587890625 10.844184027777777  10.177734375 10.579427083333336  C 10.767578125 10.31467013888889  11.37109375 9.917534722222221  11.98828125 9.388020833333332  C 12.144531250000002 9.24045138888889  12.296875000000002 9.166666666666668  12.4453125 9.166666666666668  C 13.4765625 9.166666666666668  14.324218750000002 9.583333333333332  14.98828125 10.416666666666664  L 12.375 10.416666666666664  C 11.96875 10.416666666666664  11.6171875 10.581597222222223  11.3203125 10.911458333333336  C 11.0234375 11.241319444444443  10.875 11.631944444444443  10.875 12.083333333333336  Z " fill-rule="nonzero" fill="#ffffff" stroke="none" transform="matrix(1 0 0 1 310 5 )" />
  </g>
</svg>