<?xml version="1.0" encoding="utf-8"?>
<svg version="1.1" xmlns:xlink="http://www.w3.org/1999/xlink" width="24px" height="20px" xmlns="http://www.w3.org/2000/svg">
  <g transform="matrix(1 0 0 1 -310 -5 )">
    <path d="M 6.4 7.142857142857142  C 6.4 8.177083333333332  6.737499999999999 9.129464285714286  7.4125 10  C 6.0625 10.037202380952381  4.958333333333334 10.513392857142856  4.1 11.428571428571427  L 2.425 11.428571428571427  C 1.7416666666666665 11.428571428571427  1.166666666666667 11.277901785714286  0.7 10.9765625  C 0.23333333333333328 10.675223214285714  0 10.234375  0 9.654017857142858  C 0 7.027529761904761  0.5166666666666666 5.7142857142857135  1.5500000000000003 5.7142857142857135  C 1.6 5.7142857142857135  1.78125 5.7924107142857135  2.09375 5.9486607142857135  C 2.40625 6.1049107142857135  2.8125 6.263020833333332  3.3125 6.422991071428572  C 3.8125 6.582961309523809  4.308333333333334 6.662946428571428  4.800000000000001 6.662946428571428  C 5.358333333333333 6.662946428571428  5.9125000000000005 6.577380952380951  6.4625 6.40625  C 6.420833333333334 6.681547619047617  6.4 6.927083333333332  6.4 7.142857142857142  Z M 20.75625 15.954241071428573  C 20.78541666666667 16.32998511904762  20.8 16.715029761904763  20.8 17.109375  C 20.8 18.002232142857142  20.495833333333334 18.707217261904763  19.8875 19.224330357142858  C 19.27916666666667 19.741443452380953  18.470833333333335 20  17.462500000000002 20  L 6.5375 20  C 5.529166666666667 20  4.720833333333335 19.741443452380953  4.1125 19.224330357142858  C 3.504166666666667 18.707217261904763  3.2 18.002232142857142  3.2 17.109375  C 3.2 16.715029761904763  3.2145833333333336 16.32998511904762  3.2437500000000004 15.954241071428573  C 3.272916666666667 15.578497023809524  3.33125 15.172991071428573  3.41875 14.737723214285714  C 3.5062499999999996 14.302455357142856  3.616666666666667 13.898809523809524  3.75 13.526785714285714  C 3.8833333333333337 13.154761904761902  4.0625 12.792038690476188  4.2875 12.438616071428573  C 4.5125 12.08519345238095  4.770833333333334 11.783854166666664  5.0625 11.534598214285714  C 5.354166666666667 11.285342261904763  5.710416666666667 11.086309523809524  6.1312500000000005 10.9375  C 6.552083333333334 10.788690476190474  7.0166666666666675 10.714285714285714  7.525 10.714285714285714  C 7.608333333333334 10.714285714285714  7.7875 10.794270833333332  8.0625 10.954241071428573  C 8.3375 11.11421130952381  8.641666666666666 11.292782738095237  8.975 11.489955357142856  C 9.308333333333335 11.687127976190474  9.754166666666666 11.865699404761902  10.3125 12.025669642857144  C 10.870833333333334 12.185639880952381  11.433333333333334 12.265625  12 12.265625  C 12.566666666666666 12.265625  13.129166666666666 12.185639880952381  13.6875 12.025669642857144  C 14.245833333333335 11.865699404761902  14.69166666666667 11.687127976190474  15.025000000000002 11.489955357142856  C 15.358333333333334 11.292782738095237  15.6625 11.11421130952381  15.9375 10.954241071428573  C 16.2125 10.794270833333332  16.39166666666667 10.714285714285714  16.474999999999998 10.714285714285714  C 16.983333333333334 10.714285714285714  17.44791666666667 10.788690476190474  17.86875 10.9375  C 18.289583333333333 11.086309523809524  18.645833333333332 11.285342261904763  18.9375 11.534598214285714  C 19.22916666666667 11.783854166666664  19.4875 12.08519345238095  19.712500000000002 12.438616071428573  C 19.9375 12.792038690476188  20.11666666666667 13.154761904761902  20.25 13.526785714285714  C 20.383333333333336 13.898809523809524  20.49375 14.302455357142856  20.58125 14.737723214285714  C 20.66875 15.172991071428573  20.727083333333333 15.578497023809524  20.75625 15.954241071428573  Z M 7.0625 0.8370535714285721  C 7.6875 1.395089285714286  8 2.068452380952379  8 2.857142857142858  C 8 3.6458333333333326  7.6875 4.319196428571428  7.0625 4.877232142857142  C 6.4375 5.435267857142858  5.683333333333334 5.7142857142857135  4.800000000000001 5.7142857142857135  C 3.9166666666666674 5.7142857142857135  3.1625 5.435267857142858  2.5375 4.877232142857142  C 1.9124999999999999 4.319196428571428  1.6 3.6458333333333326  1.6 2.857142857142858  C 1.6 2.068452380952379  1.9124999999999999 1.395089285714286  2.5375 0.8370535714285721  C 3.1625 0.2790178571428581  3.9166666666666674 0  4.800000000000001 0  C 5.683333333333334 0  6.4375 0.2790178571428581  7.0625 0.8370535714285721  Z M 15.393749999999999 4.1127232142857135  C 16.331249999999997 4.9497767857142865  16.799999999999997 5.959821428571428  16.799999999999997 7.142857142857142  C 16.799999999999997 8.325892857142858  16.331249999999997 9.3359375  15.393749999999999 10.172991071428573  C 14.456249999999999 11.010044642857144  13.325 11.428571428571427  12 11.428571428571427  C 10.675000000000002 11.428571428571427  9.543750000000001 11.010044642857144  8.60625 10.172991071428573  C 7.668749999999999 9.3359375  7.199999999999999 8.325892857142858  7.199999999999999 7.142857142857142  C 7.199999999999999 5.959821428571428  7.668749999999999 4.9497767857142865  8.60625 4.1127232142857135  C 9.543750000000001 3.275669642857142  10.675000000000002 2.857142857142858  12 2.857142857142858  C 13.325 2.857142857142858  14.456249999999999 3.275669642857142  15.393749999999999 4.1127232142857135  Z M 22.45 5.7142857142857135  C 23.483333333333338 5.7142857142857135  24.000000000000007 7.027529761904761  24 9.654017857142858  C 24.000000000000007 10.234375  23.766666666666666 10.675223214285714  23.3 10.9765625  C 22.833333333333336 11.277901785714286  22.258333333333336 11.428571428571427  21.575 11.428571428571427  L 19.900000000000002 11.428571428571427  C 19.04166666666667 10.513392857142856  17.9375 10.037202380952381  16.5875 10  C 17.2625 9.129464285714286  17.599999999999998 8.177083333333332  17.599999999999998 7.142857142857142  C 17.599999999999998 6.927083333333332  17.579166666666666 6.681547619047617  17.5375 6.40625  C 18.0875 6.577380952380951  18.64166666666667 6.662946428571428  19.200000000000003 6.662946428571428  C 19.691666666666666 6.662946428571428  20.1875 6.582961309523809  20.6875 6.422991071428572  C 21.1875 6.263020833333332  21.59375 6.1049107142857135  21.90625 5.9486607142857135  C 22.21875 5.7924107142857135  22.4 5.7142857142857135  22.45 5.7142857142857135  Z M 21.4625 0.8370535714285721  C 22.0875 1.395089285714286  22.4 2.068452380952379  22.4 2.857142857142858  C 22.4 3.6458333333333326  22.0875 4.319196428571428  21.4625 4.877232142857142  C 20.837500000000002 5.435267857142858  20.083333333333336 5.7142857142857135  19.200000000000003 5.7142857142857135  C 18.31666666666667 5.7142857142857135  17.5625 5.435267857142858  16.9375 4.877232142857142  C 16.3125 4.319196428571428  16 3.6458333333333326  16 2.857142857142858  C 16 2.068452380952379  16.3125 1.395089285714286  16.9375 0.8370535714285721  C 17.5625 0.2790178571428581  18.31666666666667 0  19.200000000000003 0  C 20.083333333333336 0  20.837500000000002 0.2790178571428581  21.4625 0.8370535714285721  Z " fill-rule="nonzero" fill="#ffffff" stroke="none" transform="matrix(1 0 0 1 310 5 )" />
  </g>
</svg>