<?xml version="1.0" encoding="utf-8"?>
<svg version="1.1" xmlns:xlink="http://www.w3.org/1999/xlink" width="24px" height="20px" xmlns="http://www.w3.org/2000/svg">
  <g transform="matrix(1 0 0 1 -323 -15 )">
    <path d="M 11.482099068170672 8.53515625  C 10.599313388916135 9.51171875  9.534085335948994 10  8.28641490926925 10  C 7.038744482589505 10  5.973516429622364 9.51171875  5.090730750367827 8.53515625  C 4.207945071113291 7.55859375  3.7665522314860223 6.380208333333332  3.7665522314860223 5  C 3.7665522314860223 3.6197916666666674  4.207945071113291 2.44140625  5.090730750367827 1.46484375  C 5.973516429622364 0.48828125  7.038744482589505 0  8.28641490926925 0  C 9.534085335948994 0  10.599313388916135 0.48828125  11.482099068170672 1.46484375  C 12.364884747425208 2.44140625  12.806277587052477 3.6197916666666674  12.806277587052477 5  C 12.806277587052477 6.380208333333332  12.364884747425208 7.55859375  11.482099068170672 8.53515625  Z M 23.894065718489458 10.924479166666664  L 20.963217263364395 14.166666666666664  L 23.894065718489458 17.408854166666668  C 23.96468857282982 17.486979166666668  24 17.586805555555557  24 17.708333333333332  C 24 17.821180555555557  23.96468857282982 17.916666666666668  23.894065718489458 17.994791666666668  L 22.293281020107898 19.765625  C 22.222658165767534 19.84375  22.136341343795976 19.8828125  22.034330554193232 19.8828125  C 21.92447278077489 19.8828125  21.834232466895536 19.84375  21.763609612555175 19.765625  L 18.832761157430113 16.5234375  L 15.90191270230505 19.765625  C 15.831289847964689 19.84375  15.741049534085338 19.8828125  15.631191760666994 19.8828125  C 15.529180971064248 19.8828125  15.442864149092692 19.84375  15.37224129475233 19.765625  L 13.771456596370768 17.994791666666668  C 13.700833742030406 17.916666666666668  13.665522314860226 17.821180555555557  13.665522314860226 17.708333333333332  C 13.665522314860226 17.586805555555557  13.700833742030406 17.486979166666668  13.771456596370768 17.408854166666668  L 16.70230505149583 14.166666666666664  L 13.771456596370768 10.924479166666664  C 13.700833742030406 10.846354166666664  13.665522314860226 10.746527777777777  13.665522314860226 10.625  C 13.665522314860226 10.512152777777777  13.700833742030406 10.416666666666664  13.771456596370768 10.338541666666664  L 15.37224129475233 8.567708333333332  C 15.442864149092692 8.489583333333332  15.529180971064248 8.450520833333332  15.631191760666994 8.450520833333332  C 15.741049534085338 8.450520833333332  15.831289847964689 8.489583333333332  15.90191270230505 8.567708333333332  L 18.832761157430113 11.809895833333336  L 21.763609612555175 8.567708333333332  C 21.834232466895536 8.489583333333332  21.92447278077489 8.450520833333332  22.034330554193232 8.450520833333332  C 22.136341343795976 8.450520833333332  22.222658165767534 8.489583333333332  22.293281020107898 8.567708333333332  L 23.894065718489458 10.338541666666664  C 23.96468857282982 10.416666666666664  24 10.512152777777777  24 10.625  C 24 10.746527777777777  23.96468857282982 10.846354166666664  23.894065718489458 10.924479166666664  Z M 12.97106424717999 11.809895833333336  L 15.101520353114273 14.166666666666664  L 12.97106424717999 16.5234375  C 12.680725846002945 16.844618055555557  12.53555664541442 17.239583333333332  12.53555664541442 17.708333333333332  C 12.53555664541442 18.16840277777778  12.680725846002945 18.55902777777778  12.97106424717999 18.880208333333332  L 13.948013732221678 19.9609375  C 13.783227072094164 19.986979166666668  13.610593428151057 20  13.43011280039235 20  L 3.1427170181461497 20  C 2.1932319764590487 20  1.4320745463462483 19.700520833333332  0.8592447278077489 19.1015625  C 0.2864149092692496 18.502604166666668  0 17.67795138888889  0 16.627604166666668  C 0 16.16753472222222  0.013732221677292787 15.718315972222223  0.04119666503187837 15.279947916666668  C 0.06866110838646397 14.84157986111111  0.1235899950956351 14.368489583333336  0.20598332515939188 13.860677083333336  C 0.2883766552231486 13.352864583333336  0.3923491907797941 12.881944444444443  0.5179009318293282 12.447916666666664  C 0.6434526728788622 12.01388888888889  0.8121628249141737 11.590711805555554  1.0240313879352625 11.178385416666664  C 1.2358999509563513 10.766059027777777  1.4791564492398237 10.414496527777777  1.7538008827856792 10.123697916666664  C 2.028445316331535 9.832899305555555  2.3639038744482592 9.600694444444445  2.7601765571358508 9.427083333333332  C 3.156449239823443 9.253472222222221  3.5939185875429134 9.166666666666668  4.072584600294261 9.166666666666668  C 4.221677292790584 9.166666666666668  4.374693477194703 9.24045138888889  4.531633153506621 9.388020833333332  C 5.740068661108387 10.44704861111111  6.991662579695929 10.9765625  8.28641490926925 10.9765625  C 9.581167238842571 10.9765625  10.832761157430113 10.44704861111111  12.041196665031878 9.388020833333332  C 12.198136341343798 9.24045138888889  12.351152525747917 9.166666666666668  12.500245218244237 9.166666666666668  C 12.719960765080922 9.166666666666668  12.943599803825407 9.192708333333332  13.171162334477685 9.244791666666668  C 12.951446787641002 9.479166666666668  12.790583619421284 9.696180555555555  12.688572829818538 9.895833333333332  C 12.586562040215794 10.09548611111111  12.53555664541442 10.338541666666664  12.53555664541442 10.625  C 12.53555664541442 11.09375  12.680725846002945 11.488715277777777  12.97106424717999 11.809895833333336  Z " fill-rule="nonzero" fill="#ffffff" stroke="none" transform="matrix(1 0 0 1 323 15 )" />
  </g>
</svg>