<?xml version="1.0" encoding="utf-8"?>
<svg version="1.1" xmlns:xlink="http://www.w3.org/1999/xlink" width="25px" height="25px" xmlns="http://www.w3.org/2000/svg">
  <g transform="matrix(1 0 0 1 -25 -8 )">
    <path d="M 6.77490234375 6.961930455635493  C 6.978352864583334 6.71712629896083  7.080078125 6.389888089528376  7.080078125 5.980215827338128  C 7.080078125 5.5705435651478785  6.978352864583334 5.240807354116706  6.77490234375 4.991007194244604  C 6.571451822916667 4.741207034372502  6.302897135416667 4.61630695443645  5.96923828125 4.61630695443645  C 5.619303385416667 4.61630695443645  5.31005859375 4.7437050359712245  5.04150390625 4.998501199040767  C 4.77294921875 5.253297362110312  4.638671875 5.580535571542764  4.638671875 5.980215827338128  C 4.638671875 6.369904076738608  4.77294921875 6.692146282973621  5.04150390625 6.946942446043167  C 5.31005859375 7.201738609112709  5.619303385416667 7.329136690647481  5.96923828125 7.329136690647481  C 6.302897135416667 7.329136690647481  6.571451822916667 7.20673461231015  6.77490234375 6.961930455635493  Z M 15.838623046875 14.343525179856115  C 16.046142578125 14.123701039168662  16.14990234375 13.86890487609912  16.14990234375 13.57913669064748  C 16.14990234375 13.299360511590724  16.046142578125 13.049560351718625  15.838623046875 12.829736211031173  C 15.631103515625 12.609912070343723  15.364583333333334 12.5  15.0390625 12.5  C 14.8193359375 12.5  14.617919921875 12.612410071942449  14.434814453125 12.837230215827338  C 14.251708984375 13.062050359712229  14.16015625 13.309352517985612  14.16015625 13.57913669064748  C 14.16015625 13.858912869704238  14.251708984375 14.111211031175058  14.434814453125 14.336031175059953  C 14.617919921875 14.560851318944845  14.8193359375 14.67326139088729  15.0390625 14.67326139088729  C 15.364583333333334 14.67326139088729  15.631103515625 14.563349320543564  15.838623046875 14.343525179856115  Z M 12.969970703125 6.961930455635493  C 13.169352213541668 6.71712629896083  13.26904296875 6.389888089528376  13.26904296875 5.980215827338128  C 13.26904296875 5.5705435651478785  13.169352213541668 5.240807354116706  12.969970703125 4.991007194244604  C 12.770589192708334 4.741207034372502  12.504069010416668 4.61630695443645  12.17041015625 4.61630695443645  C 11.820475260416668 4.61630695443645  11.511230468750002 4.7437050359712245  11.24267578125 4.998501199040767  C 10.974121093750002 5.253297362110312  10.839843750000002 5.580535571542764  10.83984375 5.980215827338128  C 10.839843750000002 6.369904076738608  10.974121093750002 6.692146282973621  11.24267578125 6.946942446043167  C 11.511230468750002 7.201738609112709  11.820475260416668 7.329136690647481  12.17041015625 7.329136690647481  C 12.504069010416668 7.329136690647481  12.770589192708334 7.20673461231015  12.969970703125 6.961930455635493  Z M 20.703125 14.343525179856115  C 20.914713541666668 14.123701039168662  21.020507812500004 13.86890487609912  21.0205078125 13.57913669064748  C 21.020507812500004 13.299360511590724  20.914713541666668 13.049560351718625  20.703125 12.829736211031173  C 20.491536458333336 12.609912070343723  20.22705078125 12.5  19.90966796875 12.5  C 19.68994140625 12.5  19.488525390625 12.612410071942449  19.305419921875 12.837230215827338  C 19.122314453125 13.062050359712229  19.03076171875 13.309352517985612  19.03076171875 13.57913669064748  C 19.03076171875 13.858912869704238  19.122314453125 14.111211031175058  19.305419921875 14.336031175059953  C 19.488525390625 14.560851318944845  19.68994140625 14.67326139088729  19.90966796875 14.67326139088729  C 20.22705078125 14.67326139088729  20.491536458333336 14.563349320543564  20.703125 14.343525179856115  Z M 16.107177734375 3.7245203836930445  C 16.965738932291668 4.88858912869704  17.521158854166668 6.190047961630696  17.7734375 7.628896882494004  C 17.521158854166668 7.5889288569144675  17.236328125 7.5689448441247  16.9189453125 7.5689448441247  C 15.543619791666668 7.5689448441247  14.278157552083334 7.953637090327737  13.12255859375 8.723021582733814  C 11.966959635416668 9.492406075139886  11.057535807291668 10.534072741806554  10.394287109375 11.848021582733814  C 9.731038411458334 13.16197042366107  9.3994140625 14.598321342925658  9.3994140625 16.15707434052758  C 9.3994140625 16.936450839328536  9.493001302083334 17.695843325339727  9.68017578125 18.435251798561154  C 9.395345052083334 18.465227817745806  9.11865234375 18.48021582733813  8.85009765625 18.48021582733813  C 8.638509114583334 18.48021582733813  8.43505859375 18.472721822541967  8.23974609375 18.45773381294964  C 8.04443359375 18.44274580335731  7.820638020833334 18.41027178257394  7.568359375 18.36031175059952  C 7.316080729166667 18.3103517186251  7.135009765625 18.275379696243004  7.025146484375 18.255395683453237  C 6.915283203125 18.235411670663463  6.693522135416667 18.18295363709033  6.35986328125 18.098021582733814  C 6.026204427083334 18.013089528377296  5.822753906250001 17.960631494804154  5.74951171875 17.940647482014388  L 2.6611328125 19.844124700239806  L 3.5400390625 16.57673860911271  C 1.1800130208333333 14.548361310951238  0 12.100319744204635  0 9.232613908872903  C 0 7.543964828137489  0.396728515625 5.9902078337330105  1.190185546875 4.571342925659472  C 1.9836425781250004 3.1524780175859304  3.0578613281250004 2.0358713029576316  4.412841796875 1.221522781774581  C 5.767822265625001 0.4071742605915252  7.246907552083334 0  8.85009765625 0  C 10.282389322916668 0  11.635335286458334 0.3297362110311758  12.908935546875 0.9892086330935246  C 14.182535807291668 1.6486810551558762  15.248616536458334 2.560451638689049  16.107177734375 3.7245203836930445  Z M 23.956298828125 12.087829736211031  C 24.652099609375 13.30185851318945  25 14.618305355715428  25 16.03717026378897  C 25 17.206235011990405  24.721272786458336 18.322841726618705  24.163818359375 19.38699040767386  C 23.606363932291668 20.45113908872902  22.851562500000004 21.417865707434053  21.8994140625 22.28717026378897  L 22.57080078125 25  L 20.1416015625 23.36630695443645  C 18.9208984375 23.73601119104716  18.033854166666668 23.92086330935252  17.48046875 23.92086330935252  C 16.105143229166668 23.92086330935252  14.839680989583334 23.568645083932854  13.68408203125 22.864208633093526  C 12.528483072916668 22.159772182254198  11.619059244791668 21.203037569944044  10.955810546875 19.994004796163072  C 10.292561848958334 18.784972022382092  9.960937500000002 17.46602717825739  9.9609375 16.03717026378897  C 9.960937500000002 14.608313349320543  10.292561848958334 13.289368505195842  10.955810546875 12.080335731414868  C 11.619059244791668 10.87130295763389  12.528483072916668 9.91456834532374  13.68408203125 9.210131894484414  C 14.839680989583334 8.505695443645084  16.105143229166668 8.153477218225419  17.48046875 8.153477218225419  C 18.790690104166668 8.153477218225419  20.023600260416668 8.505695443645084  21.17919921875 9.210131894484414  C 22.334798177083336 9.91456834532374  23.260498046875 10.873800959232613  23.956298828125 12.087829736211031  Z " fill-rule="nonzero" fill="#979c9e" stroke="none" transform="matrix(1 0 0 1 25 8 )" />
  </g>
</svg>