<?xml version="1.0" encoding="utf-8"?>
<svg version="1.1" xmlns:xlink="http://www.w3.org/1999/xlink" width="29px" height="20px" xmlns="http://www.w3.org/2000/svg">
  <g transform="matrix(1 0 0 1 -23 -12 )">
    <path d="M 28.641276041666668 16.296875  C 28.88042534722222 16.494791666666668  29 16.729166666666668  29 17  L 29 19  C 29 19.270833333333332  28.88042534722222 19.505208333333332  28.641276041666668 19.703125  C 28.402126736111114 19.901041666666668  28.118923611111114 20  27.791666666666668 20  L 1.2083333333333333 20  C 0.881076388888889 20  0.5978732638888888 19.901041666666668  0.3587239583333333 19.703125  C 0.11957465277777778 19.505208333333332  0 19.270833333333332  0 19  L 0 17  C 0 16.729166666666668  0.11957465277777778 16.494791666666668  0.3587239583333333 16.296875  C 0.5978732638888888 16.098958333333332  0.881076388888889 16  1.2083333333333333 16  L 27.791666666666668 16  C 28.118923611111114 16  28.402126736111114 16.098958333333332  28.641276041666668 16.296875  Z M 28.641276041666668 8.296875  C 28.88042534722222 8.494791666666666  29 8.729166666666666  29 9  L 29 11  C 29 11.270833333333332  28.88042534722222 11.505208333333332  28.641276041666668 11.703125  C 28.402126736111114 11.901041666666664  28.118923611111114 12  27.791666666666668 12  L 1.2083333333333333 12  C 0.881076388888889 12  0.5978732638888888 11.901041666666664  0.3587239583333333 11.703125  C 0.11957465277777778 11.505208333333332  0 11.270833333333332  0 11  L 0 9  C 0 8.729166666666666  0.11957465277777778 8.494791666666666  0.3587239583333333 8.296875  C 0.5978732638888888 8.098958333333336  0.881076388888889 8  1.2083333333333333 8  L 27.791666666666668 8  C 28.118923611111114 8  28.402126736111114 8.098958333333336  28.641276041666668 8.296875  Z M 28.641276041666668 0.2968750000000009  C 28.88042534722222 0.4947916666666652  29 0.7291666666666652  29 1.0000000000000009  L 29 3.0000000000000004  C 29 3.2708333333333317  28.88042534722222 3.5052083333333317  28.641276041666668 3.7031250000000004  C 28.402126736111114 3.9010416666666647  28.118923611111114 3.999999999999999  27.791666666666668 4  L 1.2083333333333333 4  C 0.881076388888889 3.999999999999999  0.5978732638888888 3.9010416666666647  0.3587239583333333 3.7031250000000004  C 0.11957465277777778 3.5052083333333317  0 3.2708333333333317  0 3.0000000000000004  L 0 1.0000000000000009  C 0 0.7291666666666652  0.11957465277777778 0.4947916666666652  0.3587239583333333 0.2968750000000009  C 0.5978732638888888 0.09895833333333215  0.881076388888889 0  1.2083333333333333 0  L 27.791666666666668 0  C 28.118923611111114 0  28.402126736111114 0.09895833333333215  28.641276041666668 0.2968750000000009  Z " fill-rule="nonzero" fill="#979c9e" stroke="none" transform="matrix(1 0 0 1 23 12 )" />
  </g>
</svg>