<?xml version="1.0" encoding="utf-8"?>
<svg version="1.1" xmlns:xlink="http://www.w3.org/1999/xlink" width="16px" height="16px" xmlns="http://www.w3.org/2000/svg">
  <defs>
    <mask fill="white" id="clip9">
      <path d="M 7.248703167766597 0.22734908627621048  C 7.019357326182493 0.3763967234612138  6.827161940048242 0.5911592571613768  6.6906608545702255 0.8509153674429347  C 6.6906608545702255 0.8509153674429347  0.20522085990816336 13.348467588208347  0.20522085990816336 13.348467588208347  C 0.07150595561588827 13.615762088333307  0.0007547153566906176 13.91881100219449  0 14.227467302886973  C -0.0007427059940741368 14.536123603579457  0.06853719560383228 14.83962644499261  0.20095324813687904 15.107781097395737  C 0.33336930066992576 15.375935749798863  0.5243056664836847 15.59939519876195  0.7547664004209012 15.755926740260195  C 0.9852271343581176 15.91245828175844  1.247178574095193 15.996607690080747  1.5145599368794351 16  C 1.5145599368794351 16  14.48543942417454 16  14.48543942417454 16  C 14.752820786958782 15.996607690080747  15.014772409251865 15.91245828175844  15.24523314318908 15.755926740260195  C 15.475693877126297 15.59939519876195  15.666630676510572 15.375935749798863  15.799046729043619 15.107781097395737  C 15.931462781576666 14.83962644499261  16.000742868883165 14.536123603579457  15.999994158207782 14.227467302886973  C 15.999245447532399 13.91881100219449  15.928494204120616 13.615762088333307  15.794779299828342 13.348467588208347  C 15.794779299828342 13.348467588208347  9.309339145429774 0.8509153674429347  9.309339145429774 0.8509153674429347  C 9.172838059951758 0.5911592571613768  8.980642673817506 0.3763967234612138  8.751296832233402 0.22734908627621048  C 8.521950990649298 0.07830144909120718  8.263196517342546 0  8 0  C 7.736803482657454 0  7.478049009350701 0.07830144909120718  7.248703167766597 0.22734908627621048  Z " fill-rule="evenodd" />
    </mask>
  </defs>
  <g transform="matrix(1 0 0 1 -2 -2 )">
    <path d="M 7.248703167766597 0.22734908627621048  C 7.019357326182493 0.3763967234612138  6.827161940048242 0.5911592571613768  6.6906608545702255 0.8509153674429347  C 6.6906608545702255 0.8509153674429347  0.20522085990816336 13.348467588208347  0.20522085990816336 13.348467588208347  C 0.07150595561588827 13.615762088333307  0.0007547153566906176 13.91881100219449  0 14.227467302886973  C -0.0007427059940741368 14.536123603579457  0.06853719560383228 14.83962644499261  0.20095324813687904 15.107781097395737  C 0.33336930066992576 15.375935749798863  0.5243056664836847 15.59939519876195  0.7547664004209012 15.755926740260195  C 0.9852271343581176 15.91245828175844  1.247178574095193 15.996607690080747  1.5145599368794351 16  C 1.5145599368794351 16  14.48543942417454 16  14.48543942417454 16  C 14.752820786958782 15.996607690080747  15.014772409251865 15.91245828175844  15.24523314318908 15.755926740260195  C 15.475693877126297 15.59939519876195  15.666630676510572 15.375935749798863  15.799046729043619 15.107781097395737  C 15.931462781576666 14.83962644499261  16.000742868883165 14.536123603579457  15.999994158207782 14.227467302886973  C 15.999245447532399 13.91881100219449  15.928494204120616 13.615762088333307  15.794779299828342 13.348467588208347  C 15.794779299828342 13.348467588208347  9.309339145429774 0.8509153674429347  9.309339145429774 0.8509153674429347  C 9.172838059951758 0.5911592571613768  8.980642673817506 0.3763967234612138  8.751296832233402 0.22734908627621048  C 8.521950990649298 0.07830144909120718  8.263196517342546 0  8 0  C 7.736803482657454 0  7.478049009350701 0.07830144909120718  7.248703167766597 0.22734908627621048  Z " fill-rule="nonzero" fill="#ffffff" stroke="none" fill-opacity="0" transform="matrix(1 0 0 1 2 2 )" />
    <path d="M 7.248703167766597 0.22734908627621048  C 7.019357326182493 0.3763967234612138  6.827161940048242 0.5911592571613768  6.6906608545702255 0.8509153674429347  C 6.6906608545702255 0.8509153674429347  0.20522085990816336 13.348467588208347  0.20522085990816336 13.348467588208347  C 0.07150595561588827 13.615762088333307  0.0007547153566906176 13.91881100219449  0 14.227467302886973  C -0.0007427059940741368 14.536123603579457  0.06853719560383228 14.83962644499261  0.20095324813687904 15.107781097395737  C 0.33336930066992576 15.375935749798863  0.5243056664836847 15.59939519876195  0.7547664004209012 15.755926740260195  C 0.9852271343581176 15.91245828175844  1.247178574095193 15.996607690080747  1.5145599368794351 16  C 1.5145599368794351 16  14.48543942417454 16  14.48543942417454 16  C 14.752820786958782 15.996607690080747  15.014772409251865 15.91245828175844  15.24523314318908 15.755926740260195  C 15.475693877126297 15.59939519876195  15.666630676510572 15.375935749798863  15.799046729043619 15.107781097395737  C 15.931462781576666 14.83962644499261  16.000742868883165 14.536123603579457  15.999994158207782 14.227467302886973  C 15.999245447532399 13.91881100219449  15.928494204120616 13.615762088333307  15.794779299828342 13.348467588208347  C 15.794779299828342 13.348467588208347  9.309339145429774 0.8509153674429347  9.309339145429774 0.8509153674429347  C 9.172838059951758 0.5911592571613768  8.980642673817506 0.3763967234612138  8.751296832233402 0.22734908627621048  C 8.521950990649298 0.07830144909120718  8.263196517342546 0  8 0  C 7.736803482657454 0  7.478049009350701 0.07830144909120718  7.248703167766597 0.22734908627621048  Z " stroke-width="3" stroke="#ffffff" fill="none" transform="matrix(1 0 0 1 2 2 )" mask="url(#clip9)" />
  </g>
</svg>