<?xml version="1.0" encoding="utf-8"?>
<svg version="1.1" xmlns:xlink="http://www.w3.org/1999/xlink" width="22px" height="22px" xmlns="http://www.w3.org/2000/svg">
  <defs>
    <mask fill="white" id="clip8">
      <path d="M 0 5.860000133514404  L 5.860000133514404 0  L 14.139999389648438 0  L 20 5.860000133514404  L 20 14.139999389648438  L 14.139999389648438 20  L 5.860000133514404 20  L 0 14.139999389648438  L 0 5.860000133514404  Z " fill-rule="evenodd" />
    </mask>
  </defs>
  <g transform="matrix(1 0 0 1 -26.5 -17.5 )">
    <path d="M 0 5.860000133514404  L 5.860000133514404 0  L 14.139999389648438 0  L 20 5.860000133514404  L 20 14.139999389648438  L 14.139999389648438 20  L 5.860000133514404 20  L 0 14.139999389648438  L 0 5.860000133514404  Z " fill-rule="nonzero" fill="#ffffff" stroke="none" fill-opacity="0" transform="matrix(1 0 0 1 27 18 )" />
    <path d="M 0 5.860000133514404  L 5.860000133514404 0  L 14.139999389648438 0  L 20 5.860000133514404  L 20 14.139999389648438  L 14.139999389648438 20  L 5.860000133514404 20  L 0 14.139999389648438  L 0 5.860000133514404  Z " stroke-width="3" stroke="#ffffff" fill="none" transform="matrix(1 0 0 1 27 18 )" mask="url(#clip8)" />
    <path d="M 13 7  L 7 13  M 7 7  L 13 13  " stroke-width="1.5" stroke="#ffffff" fill="none" transform="matrix(1 0 0 1 27 18 )" mask="url(#clip8)" />
  </g>
</svg>