<?xml version="1.0" encoding="utf-8"?>
<svg version="1.1" xmlns:xlink="http://www.w3.org/1999/xlink" width="25px" height="25px" xmlns="http://www.w3.org/2000/svg">
  <g transform="matrix(1 0 0 1 -25 -6 )">
    <path d="M 24.4384765625 14.737955729166668  C 24.541558159722225 14.84103732638889  24.593098958333336 14.96310763888889  24.593098958333336 15.104166666666668  C 24.593098958333336 15.15842013888889  24.587673611111114 15.196397569444443  24.576822916666664 15.218098958333332  C 23.882378472222225 18.126085069444443  22.428385416666664 20.4833984375  20.21484375 22.2900390625  C 18.001302083333336 24.0966796875  15.407986111111112 25  12.434895833333332 25  C 10.850694444444446 25  9.318033854166668 24.70160590277778  7.8369140625 24.104817708333336  C 6.355794270833333 23.508029513888886  5.034722222222223 22.65625  3.8736979166666665 21.549479166666664  L 1.7740885416666667 23.649088541666664  C 1.5679253472222223 23.855251736111114  1.3237847222222223 23.958333333333336  1.0416666666666665 23.958333333333336  C 0.7595486111111112 23.958333333333336  0.515407986111111 23.855251736111114  0.30924479166666663 23.649088541666664  C 0.10308159722222222 23.44292534722222  0 23.19878472222222  0 22.916666666666664  L 0 15.625  C 0 15.342881944444443  0.10308159722222222 15.098741319444443  0.30924479166666663 14.892578125  C 0.515407986111111 14.686414930555552  0.7595486111111112 14.583333333333332  1.0416666666666665 14.583333333333332  L 8.333333333333332 14.583333333333332  C 8.61545138888889 14.583333333333332  8.85959201388889 14.686414930555552  9.065755208333332 14.892578125  C 9.271918402777779 15.098741319444443  9.375 15.342881944444443  9.375 15.625  C 9.375 15.907118055555552  9.271918402777779 16.151258680555554  9.065755208333332 16.357421875  L 6.8359375 18.587239583333332  C 7.606336805555556 19.303385416666664  8.479817708333332 19.856770833333336  9.456380208333332 20.247395833333336  C 10.432942708333332 20.638020833333336  11.44748263888889 20.833333333333336  12.5 20.833333333333336  C 13.953993055555555 20.833333333333336  15.310329861111112 20.480685763888886  16.569010416666664 19.775390625  C 17.827690972222225 19.070095486111107  18.836805555555557 18.098958333333332  19.596354166666664 16.861979166666668  C 19.715711805555557 16.67751736111111  20.003255208333336 16.04275173611111  20.458984375 14.957682291666668  C 20.545789930555557 14.708116319444443  20.708550347222225 14.583333333333332  20.947265625 14.583333333333332  L 24.072265625 14.583333333333332  C 24.21332465277778 14.583333333333332  24.33539496527778 14.634874131944443  24.4384765625 14.737955729166668  Z M 24.690755208333336 1.3509114583333344  C 24.896918402777775 1.5570746527777763  25 1.8012152777777763  25 2.0833333333333344  L 25 9.375  C 25 9.657118055555555  24.896918402777775 9.901258680555555  24.690755208333336 10.107421875  C 24.484592013888893 10.313585069444445  24.240451388888893 10.416666666666666  23.958333333333336 10.416666666666666  L 16.666666666666664 10.416666666666666  C 16.384548611111114 10.416666666666666  16.140407986111114 10.313585069444445  15.934244791666666 10.107421875  C 15.728081597222223 9.901258680555555  15.625000000000004 9.657118055555555  15.625 9.375  C 15.625000000000004 9.092881944444443  15.728081597222223 8.848741319444443  15.934244791666666 8.642578125  L 18.180338541666664 6.396484375  C 16.574435763888893 4.909939236111108  14.680989583333334 4.166666666666666  12.5 4.166666666666666  C 11.046006944444446 4.166666666666666  9.68967013888889 4.519314236111108  8.430989583333332 5.224609375  C 7.172309027777779 5.929904513888887  6.1631944444444455 6.901041666666666  5.403645833333334 8.138020833333334  C 5.284288194444445 8.322482638888888  4.996744791666666 8.957248263888888  4.541015625 10.042317708333334  C 4.454210069444445 10.291883680555555  4.291449652777779 10.416666666666666  4.052734375 10.416666666666666  L 0.8138020833333334 10.416666666666666  C 0.6727430555555555 10.416666666666666  0.5506727430555556 10.365125868055555  0.4475911458333333 10.262044270833334  C 0.34450954861111116 10.15896267361111  0.29296875 10.03689236111111  0.29296875 9.895833333333334  L 0.29296875 9.781901041666666  C 0.998263888888889 6.873914930555555  2.4631076388888893 4.5166015625  4.6875 2.7099609375  C 6.911892361111112 0.9033203125  9.516059027777779 0  12.5 0  C 14.08420138888889 0  15.625 0.30110677083333426  17.122395833333336 0.9033203125  C 18.619791666666664 1.5055338541666656  19.949001736111114 2.354600694444442  21.110026041666664 3.4505208333333344  L 23.225911458333336 1.3509114583333344  C 23.43207465277778 1.1447482638888866  23.67621527777778 1.0416666666666656  23.958333333333336 1.0416666666666656  C 24.240451388888893 1.0416666666666656  24.484592013888893 1.1447482638888866  24.690755208333336 1.3509114583333344  Z " fill-rule="nonzero" fill="#979c9e" stroke="none" transform="matrix(1 0 0 1 25 6 )" />
  </g>
</svg>